  0
SECTION
  2
HEADER
  9
$ACADVER
  1
AC1014
  9
$HANDSEED
  5
FFFF
  9
$MEASUREMENT
 70
     1
  0
ENDSEC
  0
SECTION
  2
TABLES
  0
TABLE
  2
VPORT
  5
8
330
0
100
AcDbSymbolTable
 70
     4
  0
VPORT
  5
2E
330
8
100
AcDbSymbolTableRecord
100
AcDbViewportTableRecord
  2
*ACTIVE
 70
     0
 10
0.0
 20
0.0
 11
1.0
 21
1.0
 12
210.0
 22
148.5
 13
0.0
 23
0.0
 14
10.0
 24
10.0
 15
10.0
 25
10.0
 16
0.0
 26
0.0
 36
1.0
 17
0.0
 27
0.0
 37
0.0
 40
341.0
 41
1.24
 42
50.0
 43
0.0
 44
0.0
 50
0.0
 51
0.0
 71
     0
 72
   100
 73
     1
 74
     3
 75
     0
 76
     0
 77
     0
 78
     0
  0
ENDTAB
  0
TABLE
  2
LTYPE
  5
5
330
0
100
AcDbSymbolTable
 70
     1
  0
LTYPE
  5
14
330
5
100
AcDbSymbolTableRecord
100
AcDbLinetypeTableRecord
  2
BYBLOCK
 70
     0
  3

 72
    65
 73
     0
 40
0.0
  0
LTYPE
  5
15
330
5
100
AcDbSymbolTableRecord
100
AcDbLinetypeTableRecord
  2
BYLAYER
 70
     0
  3

 72
    65
 73
     0
 40
0.0
  0
LTYPE
  5
16
330
5
100
AcDbSymbolTableRecord
100
AcDbLinetypeTableRecord
  2
CONTINUOUS
 70
     0
  3
Solid line
 72
    65
 73
     0
 40
0.0
  0
ENDTAB
  0
TABLE
  2
LAYER
  5
2
100
AcDbSymbolTable
 70
2
  0
LAYER
  5
50
100
AcDbSymbolTableRecord
100
AcDbLayerTableRecord
  2
0
 70
0
  6
CONTINUOUS
  0
LAYER
  5
51
100
AcDbSymbolTableRecord
100
AcDbLayerTableRecord
  2
Layer_1
 70
0
  6
CONTINUOUS
  0
ENDTAB
  0
TABLE
  2
STYLE
  5
3
330
0
100
AcDbSymbolTable
 70
     1
  0
STYLE
  5
11
330
3
100
AcDbSymbolTableRecord
100
AcDbTextStyleTableRecord
  2
STANDARD
 70
     0
 40
0.0
 41
1.0
 50
0.0
 71
     0
 42
2.5
  3
txt
  4

  0
ENDTAB
  0
TABLE
  2
VIEW
  5
6
330
0
100
AcDbSymbolTable
 70
     0
  0
ENDTAB
  0
TABLE
  2
UCS
  5
7
330
0
100
AcDbSymbolTable
 70
     0
  0
ENDTAB
  0
TABLE
  2
APPID
  5
9
330
0
100
AcDbSymbolTable
 70
     2
  0
APPID
  5
12
330
9
100
AcDbSymbolTableRecord
100
AcDbRegAppTableRecord
  2
ACAD
 70
     0
  0
ENDTAB
  0
TABLE
  2
DIMSTYLE
  5
A
330
0
100
AcDbSymbolTable
 70
     1
  0
DIMSTYLE
105
27
330
A
100
AcDbSymbolTableRecord
100
AcDbDimStyleTableRecord
  2
ISO-25
 70
     0
  3

  4

  5

  6

  7

 40
1.0
 41
2.5
 42
0.625
 43
3.75
 44
1.25
 45
0.0
 46
0.0
 47
0.0
 48
0.0
140
2.5
141
2.5
142
0.0
143
0.03937007874016
144
1.0
145
0.0
146
1.0
147
0.625
 71
     0
 72
     0
 73
     0
 74
     0
 75
     0
 76
     0
 77
     1
 78
     8
170
     0
171
     3
172
     1
173
     0
174
     0
175
     0
176
     0
177
     0
178
     0
270
     2
271
     2
272
     2
273
     2
274
     3
340
11
275
     0
280
     0
281
     0
282
     0
283
     0
284
     8
285
     0
286
     0
287
     3
288
     0
  0
ENDTAB
  0
TABLE
  2
BLOCK_RECORD
  5
1
330
0
100
AcDbSymbolTable
 70
     1
  0
BLOCK_RECORD
  5
1F
330
1
100
AcDbSymbolTableRecord
100
AcDbBlockTableRecord
  2
*MODEL_SPACE
  0
BLOCK_RECORD
  5
1B
330
1
100
AcDbSymbolTableRecord
100
AcDbBlockTableRecord
  2
*PAPER_SPACE
  0
ENDTAB
  0
ENDSEC
  0
SECTION
  2
BLOCKS
  0
BLOCK
  5
20
330
1F
100
AcDbEntity
  8
0
100
AcDbBlockBegin
  2
*MODEL_SPACE
 70
     0
 10
0.0
 20
0.0
 30
0.0
  3
*MODEL_SPACE
  1

  0
ENDBLK
  5
21
330
1F
100
AcDbEntity
  8
0
100
AcDbBlockEnd
  0
BLOCK
  5
1C
330
1B
100
AcDbEntity
 67
     1
  8
0
100
AcDbBlockBegin
  2
*PAPER_SPACE
  1

  0
ENDBLK
  5
1D
330
1B
100
AcDbEntity
 67
     1
  8
0
100
AcDbBlockEnd
  0
ENDSEC
  0
SECTION
  2
ENTITIES
  0
LWPOLYLINE
  5
100
100
AcDbEntity
  8
Layer_1
 62
7
100
AcDbPolyline
 90
5
 70
0
 10
52.997619
 20
164.812696
 30
0.0
 10
52.997619
 20
244.812700
 30
0.0
 10
111.497618
 20
244.812700
 30
0.0
 10
111.497618
 20
164.812696
 30
0.0
 10
52.997619
 20
164.812696
 30
0.0
  0
LWPOLYLINE
  5
101
100
AcDbEntity
  8
Layer_1
 62
7
100
AcDbPolyline
 90
31
 70
0
 10
56.397619
 20
169.812686
 30
0.0
 10
56.432619
 20
170.145709
 30
0.0
 10
56.535619
 20
170.463688
 30
0.0
 10
56.703619
 20
170.752712
 30
0.0
 10
56.926619
 20
171.001689
 30
0.0
 10
57.197619
 20
171.198708
 30
0.0
 10
57.503619
 20
171.334711
 30
0.0
 10
57.830619
 20
171.403686
 30
0.0
 10
58.164619
 20
171.403686
 30
0.0
 10
58.491619
 20
171.334711
 30
0.0
 10
58.797619
 20
171.198708
 30
0.0
 10
59.068619
 20
171.001689
 30
0.0
 10
59.291619
 20
170.752712
 30
0.0
 10
59.459619
 20
170.463688
 30
0.0
 10
59.562619
 20
170.145709
 30
0.0
 10
59.597619
 20
169.812686
 30
0.0
 10
59.562619
 20
169.479692
 30
0.0
 10
59.459619
 20
169.161713
 30
0.0
 10
59.291619
 20
168.872689
 30
0.0
 10
59.068619
 20
168.623712
 30
0.0
 10
58.797619
 20
168.426693
 30
0.0
 10
58.491619
 20
168.290690
 30
0.0
 10
58.164619
 20
168.221687
 30
0.0
 10
57.830619
 20
168.221687
 30
0.0
 10
57.503619
 20
168.290690
 30
0.0
 10
57.197619
 20
168.426693
 30
0.0
 10
56.926619
 20
168.623712
 30
0.0
 10
56.703619
 20
168.872689
 30
0.0
 10
56.535619
 20
169.161713
 30
0.0
 10
56.432619
 20
169.479692
 30
0.0
 10
56.397619
 20
169.812686
 30
0.0
  0
LWPOLYLINE
  5
102
100
AcDbEntity
  8
Layer_1
 62
7
100
AcDbPolyline
 90
31
 70
0
 10
56.397619
 20
239.812699
 30
0.0
 10
56.432619
 20
240.145701
 30
0.0
 10
56.535619
 20
240.463701
 30
0.0
 10
56.703619
 20
240.752699
 30
0.0
 10
56.926619
 20
241.001701
 30
0.0
 10
57.197619
 20
241.198700
 30
0.0
 10
57.503619
 20
241.334701
 30
0.0
 10
57.830619
 20
241.403698
 30
0.0
 10
58.164619
 20
241.403698
 30
0.0
 10
58.491619
 20
241.334701
 30
0.0
 10
58.797619
 20
241.198700
 30
0.0
 10
59.068619
 20
241.001701
 30
0.0
 10
59.291619
 20
240.752699
 30
0.0
 10
59.459619
 20
240.463701
 30
0.0
 10
59.562619
 20
240.145701
 30
0.0
 10
59.597619
 20
239.812699
 30
0.0
 10
59.562619
 20
239.479699
 30
0.0
 10
59.459619
 20
239.161700
 30
0.0
 10
59.291619
 20
238.872701
 30
0.0
 10
59.068619
 20
238.623699
 30
0.0
 10
58.797619
 20
238.426700
 30
0.0
 10
58.491619
 20
238.290700
 30
0.0
 10
58.164619
 20
238.221699
 30
0.0
 10
57.830619
 20
238.221699
 30
0.0
 10
57.503619
 20
238.290700
 30
0.0
 10
57.197619
 20
238.426700
 30
0.0
 10
56.926619
 20
238.623699
 30
0.0
 10
56.703619
 20
238.872701
 30
0.0
 10
56.535619
 20
239.161700
 30
0.0
 10
56.432619
 20
239.479699
 30
0.0
 10
56.397619
 20
239.812699
 30
0.0
  0
LWPOLYLINE
  5
103
100
AcDbEntity
  8
Layer_1
 62
7
100
AcDbPolyline
 90
31
 70
0
 10
66.222619
 20
229.812699
 30
0.0
 10
66.246619
 20
230.041700
 30
0.0
 10
66.317619
 20
230.259699
 30
0.0
 10
66.432619
 20
230.459699
 30
0.0
 10
66.586619
 20
230.629698
 30
0.0
 10
66.772619
 20
230.765698
 30
0.0
 10
66.982619
 20
230.858699
 30
0.0
 10
67.207619
 20
230.906700
 30
0.0
 10
67.437619
 20
230.906700
 30
0.0
 10
67.662619
 20
230.858699
 30
0.0
 10
67.872619
 20
230.765698
 30
0.0
 10
68.058619
 20
230.629698
 30
0.0
 10
68.212619
 20
230.459699
 30
0.0
 10
68.327619
 20
230.259699
 30
0.0
 10
68.398619
 20
230.041700
 30
0.0
 10
68.422619
 20
229.812699
 30
0.0
 10
68.398619
 20
229.583698
 30
0.0
 10
68.327619
 20
229.365698
 30
0.0
 10
68.212619
 20
229.165699
 30
0.0
 10
68.058619
 20
228.995699
 30
0.0
 10
67.872619
 20
228.859699
 30
0.0
 10
67.662619
 20
228.766699
 30
0.0
 10
67.437619
 20
228.718698
 30
0.0
 10
67.207619
 20
228.718698
 30
0.0
 10
66.982619
 20
228.766699
 30
0.0
 10
66.772619
 20
228.859699
 30
0.0
 10
66.586619
 20
228.995699
 30
0.0
 10
66.432619
 20
229.165699
 30
0.0
 10
66.317619
 20
229.365698
 30
0.0
 10
66.246619
 20
229.583698
 30
0.0
 10
66.222618
 20
229.812699
 30
0.0
  0
LWPOLYLINE
  5
104
100
AcDbEntity
  8
Layer_1
 62
7
100
AcDbPolyline
 90
31
 70
0
 10
70.487619
 20
178.237697
 30
0.0
 10
70.522619
 20
178.570691
 30
0.0
 10
70.625619
 20
178.888699
 30
0.0
 10
70.793619
 20
179.177695
 30
0.0
 10
71.016619
 20
179.426699
 30
0.0
 10
71.287619
 20
179.623690
 30
0.0
 10
71.593619
 20
179.759693
 30
0.0
 10
71.920619
 20
179.828697
 30
0.0
 10
72.254619
 20
179.828697
 30
0.0
 10
72.581619
 20
179.759693
 30
0.0
 10
72.887619
 20
179.623690
 30
0.0
 10
73.158619
 20
179.426699
 30
0.0
 10
73.381619
 20
179.177695
 30
0.0
 10
73.549619
 20
178.888699
 30
0.0
 10
73.652619
 20
178.570691
 30
0.0
 10
73.687619
 20
178.237697
 30
0.0
 10
73.652619
 20
177.904703
 30
0.0
 10
73.549619
 20
177.586695
 30
0.0
 10
73.381619
 20
177.297699
 30
0.0
 10
73.158619
 20
177.048695
 30
0.0
 10
72.887619
 20
176.851704
 30
0.0
 10
72.581619
 20
176.715701
 30
0.0
 10
72.254619
 20
176.646697
 30
0.0
 10
71.920619
 20
176.646697
 30
0.0
 10
71.593619
 20
176.715701
 30
0.0
 10
71.287619
 20
176.851704
 30
0.0
 10
71.016619
 20
177.048695
 30
0.0
 10
70.793619
 20
177.297699
 30
0.0
 10
70.625619
 20
177.586695
 30
0.0
 10
70.522619
 20
177.904703
 30
0.0
 10
70.487619
 20
178.237697
 30
0.0
  0
LWPOLYLINE
  5
105
100
AcDbEntity
  8
Layer_1
 62
7
100
AcDbPolyline
 90
31
 70
0
 10
70.487619
 20
211.387689
 30
0.0
 10
70.522619
 20
211.720711
 30
0.0
 10
70.625619
 20
212.038691
 30
0.0
 10
70.793619
 20
212.327686
 30
0.0
 10
71.016619
 20
212.576691
 30
0.0
 10
71.287619
 20
212.773710
 30
0.0
 10
71.593619
 20
212.909713
 30
0.0
 10
71.920619
 20
212.978688
 30
0.0
 10
72.254619
 20
212.978688
 30
0.0
 10
72.581619
 20
212.909713
 30
0.0
 10
72.887619
 20
212.773710
 30
0.0
 10
73.158619
 20
212.576691
 30
0.0
 10
73.381619
 20
212.327686
 30
0.0
 10
73.549619
 20
212.038691
 30
0.0
 10
73.652619
 20
211.720711
 30
0.0
 10
73.687619
 20
211.387689
 30
0.0
 10
73.652619
 20
211.054695
 30
0.0
 10
73.549619
 20
210.736687
 30
0.0
 10
73.381619
 20
210.447691
 30
0.0
 10
73.158619
 20
210.198686
 30
0.0
 10
72.887619
 20
210.001695
 30
0.0
 10
72.581619
 20
209.865692
 30
0.0
 10
72.254619
 20
209.796689
 30
0.0
 10
71.920619
 20
209.796689
 30
0.0
 10
71.593619
 20
209.865692
 30
0.0
 10
71.287619
 20
210.001695
 30
0.0
 10
71.016619
 20
210.198686
 30
0.0
 10
70.793619
 20
210.447691
 30
0.0
 10
70.625619
 20
210.736687
 30
0.0
 10
70.522619
 20
211.054695
 30
0.0
 10
70.487619
 20
211.387689
 30
0.0
  0
LWPOLYLINE
  5
106
100
AcDbEntity
  8
Layer_1
 62
7
100
AcDbPolyline
 90
5
 70
0
 10
70.572619
 20
218.137710
 30
0.0
 10
70.572619
 20
241.487699
 30
0.0
 10
93.922619
 20
241.487699
 30
0.0
 10
93.922619
 20
218.137710
 30
0.0
 10
70.572619
 20
218.137710
 30
0.0
  0
LWPOLYLINE
  5
107
100
AcDbEntity
  8
Layer_1
 62
7
100
AcDbPolyline
 90
5
 70
0
 10
70.587619
 20
181.812691
 30
0.0
 10
70.587619
 20
207.812695
 30
0.0
 10
73.587619
 20
207.812695
 30
0.0
 10
73.587619
 20
181.812691
 30
0.0
 10
70.587619
 20
181.812691
 30
0.0
  0
LWPOLYLINE
  5
108
100
AcDbEntity
  8
Layer_1
 62
7
100
AcDbPolyline
 90
31
 70
0
 10
90.807619
 20
178.237697
 30
0.0
 10
90.842619
 20
178.570691
 30
0.0
 10
90.945619
 20
178.888699
 30
0.0
 10
91.113619
 20
179.177695
 30
0.0
 10
91.336619
 20
179.426699
 30
0.0
 10
91.607619
 20
179.623690
 30
0.0
 10
91.913619
 20
179.759693
 30
0.0
 10
92.240619
 20
179.828697
 30
0.0
 10
92.574619
 20
179.828697
 30
0.0
 10
92.901619
 20
179.759693
 30
0.0
 10
93.207619
 20
179.623690
 30
0.0
 10
93.478619
 20
179.426699
 30
0.0
 10
93.701619
 20
179.177695
 30
0.0
 10
93.869619
 20
178.888699
 30
0.0
 10
93.972619
 20
178.570691
 30
0.0
 10
94.007619
 20
178.237697
 30
0.0
 10
93.972619
 20
177.904703
 30
0.0
 10
93.869619
 20
177.586695
 30
0.0
 10
93.701619
 20
177.297699
 30
0.0
 10
93.478619
 20
177.048695
 30
0.0
 10
93.207619
 20
176.851704
 30
0.0
 10
92.901619
 20
176.715701
 30
0.0
 10
92.574619
 20
176.646697
 30
0.0
 10
92.240619
 20
176.646697
 30
0.0
 10
91.913619
 20
176.715701
 30
0.0
 10
91.607619
 20
176.851704
 30
0.0
 10
91.336619
 20
177.048695
 30
0.0
 10
91.113619
 20
177.297699
 30
0.0
 10
90.945619
 20
177.586695
 30
0.0
 10
90.842619
 20
177.904703
 30
0.0
 10
90.807619
 20
178.237697
 30
0.0
  0
LWPOLYLINE
  5
109
100
AcDbEntity
  8
Layer_1
 62
7
100
AcDbPolyline
 90
31
 70
0
 10
90.807619
 20
211.387689
 30
0.0
 10
90.842619
 20
211.720711
 30
0.0
 10
90.945619
 20
212.038691
 30
0.0
 10
91.113619
 20
212.327686
 30
0.0
 10
91.336619
 20
212.576691
 30
0.0
 10
91.607619
 20
212.773710
 30
0.0
 10
91.913619
 20
212.909713
 30
0.0
 10
92.240619
 20
212.978688
 30
0.0
 10
92.574619
 20
212.978688
 30
0.0
 10
92.901619
 20
212.909713
 30
0.0
 10
93.207619
 20
212.773710
 30
0.0
 10
93.478619
 20
212.576691
 30
0.0
 10
93.701619
 20
212.327686
 30
0.0
 10
93.869619
 20
212.038691
 30
0.0
 10
93.972619
 20
211.720711
 30
0.0
 10
94.007619
 20
211.387689
 30
0.0
 10
93.972619
 20
211.054695
 30
0.0
 10
93.869619
 20
210.736687
 30
0.0
 10
93.701619
 20
210.447691
 30
0.0
 10
93.478619
 20
210.198686
 30
0.0
 10
93.207619
 20
210.001695
 30
0.0
 10
92.901619
 20
209.865692
 30
0.0
 10
92.574619
 20
209.796689
 30
0.0
 10
92.240619
 20
209.796689
 30
0.0
 10
91.913619
 20
209.865692
 30
0.0
 10
91.607619
 20
210.001695
 30
0.0
 10
91.336619
 20
210.198686
 30
0.0
 10
91.113619
 20
210.447691
 30
0.0
 10
90.945619
 20
210.736687
 30
0.0
 10
90.842619
 20
211.054695
 30
0.0
 10
90.807619
 20
211.387689
 30
0.0
  0
LWPOLYLINE
  5
10a
100
AcDbEntity
  8
Layer_1
 62
7
100
AcDbPolyline
 90
5
 70
0
 10
90.907619
 20
181.812691
 30
0.0
 10
90.907619
 20
207.812695
 30
0.0
 10
93.907619
 20
207.812695
 30
0.0
 10
93.907619
 20
181.812691
 30
0.0
 10
90.907619
 20
181.812691
 30
0.0
  0
LWPOLYLINE
  5
10b
100
AcDbEntity
  8
Layer_1
 62
7
100
AcDbPolyline
 90
31
 70
0
 10
96.072619
 20
229.812699
 30
0.0
 10
96.096619
 20
230.041700
 30
0.0
 10
96.167619
 20
230.259699
 30
0.0
 10
96.282619
 20
230.459699
 30
0.0
 10
96.436619
 20
230.629698
 30
0.0
 10
96.622619
 20
230.765698
 30
0.0
 10
96.832619
 20
230.858699
 30
0.0
 10
97.057619
 20
230.906700
 30
0.0
 10
97.287619
 20
230.906700
 30
0.0
 10
97.512619
 20
230.858699
 30
0.0
 10
97.722619
 20
230.765698
 30
0.0
 10
97.908619
 20
230.629698
 30
0.0
 10
98.062619
 20
230.459699
 30
0.0
 10
98.177619
 20
230.259699
 30
0.0
 10
98.248619
 20
230.041700
 30
0.0
 10
98.272619
 20
229.812699
 30
0.0
 10
98.248618
 20
229.583698
 30
0.0
 10
98.177619
 20
229.365698
 30
0.0
 10
98.062619
 20
229.165699
 30
0.0
 10
97.908619
 20
228.995699
 30
0.0
 10
97.722619
 20
228.859699
 30
0.0
 10
97.512619
 20
228.766699
 30
0.0
 10
97.287619
 20
228.718698
 30
0.0
 10
97.057619
 20
228.718698
 30
0.0
 10
96.832619
 20
228.766699
 30
0.0
 10
96.622619
 20
228.859699
 30
0.0
 10
96.436619
 20
228.995699
 30
0.0
 10
96.282619
 20
229.165699
 30
0.0
 10
96.167619
 20
229.365698
 30
0.0
 10
96.096619
 20
229.583698
 30
0.0
 10
96.072619
 20
229.812699
 30
0.0
  0
LWPOLYLINE
  5
10c
100
AcDbEntity
  8
Layer_1
 62
7
100
AcDbPolyline
 90
31
 70
0
 10
104.897619
 20
169.812686
 30
0.0
 10
104.932619
 20
170.145709
 30
0.0
 10
105.035619
 20
170.463688
 30
0.0
 10
105.203619
 20
170.752712
 30
0.0
 10
105.426619
 20
171.001689
 30
0.0
 10
105.697619
 20
171.198708
 30
0.0
 10
106.003619
 20
171.334711
 30
0.0
 10
106.330619
 20
171.403686
 30
0.0
 10
106.664619
 20
171.403686
 30
0.0
 10
106.991619
 20
171.334711
 30
0.0
 10
107.297619
 20
171.198708
 30
0.0
 10
107.568619
 20
171.001689
 30
0.0
 10
107.791619
 20
170.752712
 30
0.0
 10
107.959619
 20
170.463688
 30
0.0
 10
108.062619
 20
170.145709
 30
0.0
 10
108.097619
 20
169.812686
 30
0.0
 10
108.062619
 20
169.479692
 30
0.0
 10
107.959619
 20
169.161713
 30
0.0
 10
107.791619
 20
168.872689
 30
0.0
 10
107.568619
 20
168.623712
 30
0.0
 10
107.297619
 20
168.426693
 30
0.0
 10
106.991619
 20
168.290690
 30
0.0
 10
106.664619
 20
168.221687
 30
0.0
 10
106.330619
 20
168.221687
 30
0.0
 10
106.003619
 20
168.290690
 30
0.0
 10
105.697619
 20
168.426693
 30
0.0
 10
105.426619
 20
168.623712
 30
0.0
 10
105.203619
 20
168.872689
 30
0.0
 10
105.035619
 20
169.161713
 30
0.0
 10
104.932619
 20
169.479692
 30
0.0
 10
104.897619
 20
169.812686
 30
0.0
  0
LWPOLYLINE
  5
10d
100
AcDbEntity
  8
Layer_1
 62
7
100
AcDbPolyline
 90
31
 70
0
 10
104.897619
 20
239.812699
 30
0.0
 10
104.932619
 20
240.145701
 30
0.0
 10
105.035619
 20
240.463701
 30
0.0
 10
105.203619
 20
240.752699
 30
0.0
 10
105.426619
 20
241.001701
 30
0.0
 10
105.697619
 20
241.198700
 30
0.0
 10
106.003619
 20
241.334701
 30
0.0
 10
106.330619
 20
241.403698
 30
0.0
 10
106.664619
 20
241.403698
 30
0.0
 10
106.991619
 20
241.334701
 30
0.0
 10
107.297619
 20
241.198700
 30
0.0
 10
107.568619
 20
241.001701
 30
0.0
 10
107.791619
 20
240.752699
 30
0.0
 10
107.959619
 20
240.463701
 30
0.0
 10
108.062619
 20
240.145701
 30
0.0
 10
108.097619
 20
239.812699
 30
0.0
 10
108.062619
 20
239.479699
 30
0.0
 10
107.959619
 20
239.161700
 30
0.0
 10
107.791619
 20
238.872701
 30
0.0
 10
107.568619
 20
238.623699
 30
0.0
 10
107.297619
 20
238.426700
 30
0.0
 10
106.991619
 20
238.290700
 30
0.0
 10
106.664619
 20
238.221699
 30
0.0
 10
106.330619
 20
238.221699
 30
0.0
 10
106.003619
 20
238.290700
 30
0.0
 10
105.697619
 20
238.426700
 30
0.0
 10
105.426619
 20
238.623699
 30
0.0
 10
105.203619
 20
238.872701
 30
0.0
 10
105.035619
 20
239.161700
 30
0.0
 10
104.932619
 20
239.479699
 30
0.0
 10
104.897619
 20
239.812699
 30
0.0
  0
ENDSEC
  0
SECTION
  2
OBJECTS
  0
DICTIONARY
  5
C
330
0
100
AcDbDictionary
  3
ACAD_GROUP
350
D
  3
ACAD_MLINESTYLE
350
17
  0
DICTIONARY
  5
D
330
C
100
AcDbDictionary
  0
DICTIONARY
  5
1A
330
C
100
AcDbDictionary
  0
DICTIONARY
  5
17
330
C
100
AcDbDictionary
  3
STANDARD
350
18
  0
DICTIONARY
  5
19
330
C
100
AcDbDictionary
  0
ENDSEC
  0
EOF
