  0
SECTION
  2
BLOCKS
  0
ENDSEC
  0
SECTION
  2
ENTITIES
  0
LINE
  8
0
 10
-29.25
 11
-29.25
 20
-40
 21
40
  0
LINE
  8
0
 10
-29.25
 11
29.25
 20
40
 21
40
  0
LINE
  8
0
 10
29.25
 11
29.25
 20
40
 21
-40
  0
LINE
  8
0
 10
29.25
 11
-29.25
 20
-40
 21
-40
  0
LINE
  8
0
 10
-25.85
 11
-25.815
 20
-35
 21
-34.667
  0
LINE
  8
0
 10
-25.815
 11
-25.712
 20
-34.667
 21
-34.349
  0
LINE
  8
0
 10
-25.712
 11
-25.544
 20
-34.349
 21
-34.06
  0
LINE
  8
0
 10
-25.544
 11
-25.321
 20
-34.06
 21
-33.811
  0
LINE
  8
0
 10
-25.321
 11
-25.05
 20
-33.811
 21
-33.614
  0
LINE
  8
0
 10
-25.05
 11
-24.744
 20
-33.614
 21
-33.478
  0
LINE
  8
0
 10
-24.744
 11
-24.417
 20
-33.478
 21
-33.409
  0
LINE
  8
0
 10
-24.417
 11
-24.083
 20
-33.409
 21
-33.409
  0
LINE
  8
0
 10
-24.083
 11
-23.756
 20
-33.409
 21
-33.478
  0
LINE
  8
0
 10
-23.756
 11
-23.45
 20
-33.478
 21
-33.614
  0
LINE
  8
0
 10
-23.45
 11
-23.179
 20
-33.614
 21
-33.811
  0
LINE
  8
0
 10
-23.179
 11
-22.956
 20
-33.811
 21
-34.06
  0
LINE
  8
0
 10
-22.956
 11
-22.788
 20
-34.06
 21
-34.349
  0
LINE
  8
0
 10
-22.788
 11
-22.685
 20
-34.349
 21
-34.667
  0
LINE
  8
0
 10
-22.685
 11
-22.65
 20
-34.667
 21
-35
  0
LINE
  8
0
 10
-22.65
 11
-22.685
 20
-35
 21
-35.333
  0
LINE
  8
0
 10
-22.685
 11
-22.788
 20
-35.333
 21
-35.651
  0
LINE
  8
0
 10
-22.788
 11
-22.956
 20
-35.651
 21
-35.94
  0
LINE
  8
0
 10
-22.956
 11
-23.179
 20
-35.94
 21
-36.189
  0
LINE
  8
0
 10
-23.179
 11
-23.45
 20
-36.189
 21
-36.386
  0
LINE
  8
0
 10
-23.45
 11
-23.756
 20
-36.386
 21
-36.522
  0
LINE
  8
0
 10
-23.756
 11
-24.083
 20
-36.522
 21
-36.591
  0
LINE
  8
0
 10
-24.083
 11
-24.417
 20
-36.591
 21
-36.591
  0
LINE
  8
0
 10
-24.417
 11
-24.744
 20
-36.591
 21
-36.522
  0
LINE
  8
0
 10
-24.744
 11
-25.05
 20
-36.522
 21
-36.386
  0
LINE
  8
0
 10
-25.05
 11
-25.321
 20
-36.386
 21
-36.189
  0
LINE
  8
0
 10
-25.321
 11
-25.544
 20
-36.189
 21
-35.94
  0
LINE
  8
0
 10
-25.544
 11
-25.712
 20
-35.94
 21
-35.651
  0
LINE
  8
0
 10
-25.712
 11
-25.815
 20
-35.651
 21
-35.333
  0
LINE
  8
0
 10
-25.815
 11
-25.85
 20
-35.333
 21
-35
  0
LINE
  8
0
 10
-25.85
 11
-25.815
 20
35
 21
35.333
  0
LINE
  8
0
 10
-25.815
 11
-25.712
 20
35.333
 21
35.651
  0
LINE
  8
0
 10
-25.712
 11
-25.544
 20
35.651
 21
35.94
  0
LINE
  8
0
 10
-25.544
 11
-25.321
 20
35.94
 21
36.189
  0
LINE
  8
0
 10
-25.321
 11
-25.05
 20
36.189
 21
36.386
  0
LINE
  8
0
 10
-25.05
 11
-24.744
 20
36.386
 21
36.522
  0
LINE
  8
0
 10
-24.744
 11
-24.417
 20
36.522
 21
36.591
  0
LINE
  8
0
 10
-24.417
 11
-24.083
 20
36.591
 21
36.591
  0
LINE
  8
0
 10
-24.083
 11
-23.756
 20
36.591
 21
36.522
  0
LINE
  8
0
 10
-23.756
 11
-23.45
 20
36.522
 21
36.386
  0
LINE
  8
0
 10
-23.45
 11
-23.179
 20
36.386
 21
36.189
  0
LINE
  8
0
 10
-23.179
 11
-22.956
 20
36.189
 21
35.94
  0
LINE
  8
0
 10
-22.956
 11
-22.788
 20
35.94
 21
35.651
  0
LINE
  8
0
 10
-22.788
 11
-22.685
 20
35.651
 21
35.333
  0
LINE
  8
0
 10
-22.685
 11
-22.65
 20
35.333
 21
35
  0
LINE
  8
0
 10
-22.65
 11
-22.685
 20
35
 21
34.667
  0
LINE
  8
0
 10
-22.685
 11
-22.788
 20
34.667
 21
34.349
  0
LINE
  8
0
 10
-22.788
 11
-22.956
 20
34.349
 21
34.06
  0
LINE
  8
0
 10
-22.956
 11
-23.179
 20
34.06
 21
33.811
  0
LINE
  8
0
 10
-23.179
 11
-23.45
 20
33.811
 21
33.614
  0
LINE
  8
0
 10
-23.45
 11
-23.756
 20
33.614
 21
33.478
  0
LINE
  8
0
 10
-23.756
 11
-24.083
 20
33.478
 21
33.409
  0
LINE
  8
0
 10
-24.083
 11
-24.417
 20
33.409
 21
33.409
  0
LINE
  8
0
 10
-24.417
 11
-24.744
 20
33.409
 21
33.478
  0
LINE
  8
0
 10
-24.744
 11
-25.05
 20
33.478
 21
33.614
  0
LINE
  8
0
 10
-25.05
 11
-25.321
 20
33.614
 21
33.811
  0
LINE
  8
0
 10
-25.321
 11
-25.544
 20
33.811
 21
34.06
  0
LINE
  8
0
 10
-25.544
 11
-25.712
 20
34.06
 21
34.349
  0
LINE
  8
0
 10
-25.712
 11
-25.815
 20
34.349
 21
34.667
  0
LINE
  8
0
 10
-25.815
 11
-25.85
 20
34.667
 21
35
  0
LINE
  8
0
 10
-16.025
 11
-16.001
 20
25
 21
25.229
  0
LINE
  8
0
 10
-16.001
 11
-15.93
 20
25.229
 21
25.447
  0
LINE
  8
0
 10
-15.93
 11
-15.815
 20
25.447
 21
25.647
  0
LINE
  8
0
 10
-15.815
 11
-15.661
 20
25.647
 21
25.817
  0
LINE
  8
0
 10
-15.661
 11
-15.475
 20
25.817
 21
25.953
  0
LINE
  8
0
 10
-15.475
 11
-15.265
 20
25.953
 21
26.046
  0
LINE
  8
0
 10
-15.265
 11
-15.04
 20
26.046
 21
26.094
  0
LINE
  8
0
 10
-15.04
 11
-14.81
 20
26.094
 21
26.094
  0
LINE
  8
0
 10
-14.81
 11
-14.585
 20
26.094
 21
26.046
  0
LINE
  8
0
 10
-14.585
 11
-14.375
 20
26.046
 21
25.953
  0
LINE
  8
0
 10
-14.375
 11
-14.189
 20
25.953
 21
25.817
  0
LINE
  8
0
 10
-14.189
 11
-14.035
 20
25.817
 21
25.647
  0
LINE
  8
0
 10
-14.035
 11
-13.92
 20
25.647
 21
25.447
  0
LINE
  8
0
 10
-13.92
 11
-13.849
 20
25.447
 21
25.229
  0
LINE
  8
0
 10
-13.849
 11
-13.825
 20
25.229
 21
25
  0
LINE
  8
0
 10
-13.825
 11
-13.849
 20
25
 21
24.771
  0
LINE
  8
0
 10
-13.849
 11
-13.92
 20
24.771
 21
24.553
  0
LINE
  8
0
 10
-13.92
 11
-14.035
 20
24.553
 21
24.353
  0
LINE
  8
0
 10
-14.035
 11
-14.189
 20
24.353
 21
24.183
  0
LINE
  8
0
 10
-14.189
 11
-14.375
 20
24.183
 21
24.047
  0
LINE
  8
0
 10
-14.375
 11
-14.585
 20
24.047
 21
23.954
  0
LINE
  8
0
 10
-14.585
 11
-14.81
 20
23.954
 21
23.906
  0
LINE
  8
0
 10
-14.81
 11
-15.04
 20
23.906
 21
23.906
  0
LINE
  8
0
 10
-15.04
 11
-15.265
 20
23.906
 21
23.954
  0
LINE
  8
0
 10
-15.265
 11
-15.475
 20
23.954
 21
24.047
  0
LINE
  8
0
 10
-15.475
 11
-15.661
 20
24.047
 21
24.183
  0
LINE
  8
0
 10
-15.661
 11
-15.815
 20
24.183
 21
24.353
  0
LINE
  8
0
 10
-15.815
 11
-15.93
 20
24.353
 21
24.553
  0
LINE
  8
0
 10
-15.93
 11
-16.001
 20
24.553
 21
24.771
  0
LINE
  8
0
 10
-16.001
 11
-16.025
 20
24.771
 21
25
  0
LINE
  8
0
 10
-11.76
 11
-11.725
 20
-26.575
 21
-26.242
  0
LINE
  8
0
 10
-11.725
 11
-11.622
 20
-26.242
 21
-25.924
  0
LINE
  8
0
 10
-11.622
 11
-11.454
 20
-25.924
 21
-25.635
  0
LINE
  8
0
 10
-11.454
 11
-11.231
 20
-25.635
 21
-25.386
  0
LINE
  8
0
 10
-11.231
 11
-10.96
 20
-25.386
 21
-25.189
  0
LINE
  8
0
 10
-10.96
 11
-10.654
 20
-25.189
 21
-25.053
  0
LINE
  8
0
 10
-10.654
 11
-10.327
 20
-25.053
 21
-24.984
  0
LINE
  8
0
 10
-10.327
 11
-9.993
 20
-24.984
 21
-24.984
  0
LINE
  8
0
 10
-9.993
 11
-9.666
 20
-24.984
 21
-25.053
  0
LINE
  8
0
 10
-9.666
 11
-9.36
 20
-25.053
 21
-25.189
  0
LINE
  8
0
 10
-9.36
 11
-9.089
 20
-25.189
 21
-25.386
  0
LINE
  8
0
 10
-9.089
 11
-8.866
 20
-25.386
 21
-25.635
  0
LINE
  8
0
 10
-8.866
 11
-8.698
 20
-25.635
 21
-25.924
  0
LINE
  8
0
 10
-8.698
 11
-8.595
 20
-25.924
 21
-26.242
  0
LINE
  8
0
 10
-8.595
 11
-8.56
 20
-26.242
 21
-26.575
  0
LINE
  8
0
 10
-8.56
 11
-8.595
 20
-26.575
 21
-26.908
  0
LINE
  8
0
 10
-8.595
 11
-8.698
 20
-26.908
 21
-27.226
  0
LINE
  8
0
 10
-8.698
 11
-8.866
 20
-27.226
 21
-27.515
  0
LINE
  8
0
 10
-8.866
 11
-9.089
 20
-27.515
 21
-27.764
  0
LINE
  8
0
 10
-9.089
 11
-9.36
 20
-27.764
 21
-27.961
  0
LINE
  8
0
 10
-9.36
 11
-9.666
 20
-27.961
 21
-28.097
  0
LINE
  8
0
 10
-9.666
 11
-9.993
 20
-28.097
 21
-28.166
  0
LINE
  8
0
 10
-9.993
 11
-10.327
 20
-28.166
 21
-28.166
  0
LINE
  8
0
 10
-10.327
 11
-10.654
 20
-28.166
 21
-28.097
  0
LINE
  8
0
 10
-10.654
 11
-10.96
 20
-28.097
 21
-27.961
  0
LINE
  8
0
 10
-10.96
 11
-11.231
 20
-27.961
 21
-27.764
  0
LINE
  8
0
 10
-11.231
 11
-11.454
 20
-27.764
 21
-27.515
  0
LINE
  8
0
 10
-11.454
 11
-11.622
 20
-27.515
 21
-27.226
  0
LINE
  8
0
 10
-11.622
 11
-11.725
 20
-27.226
 21
-26.908
  0
LINE
  8
0
 10
-11.725
 11
-11.76
 20
-26.908
 21
-26.575
  0
LINE
  8
0
 10
-11.76
 11
-11.725
 20
6.575
 21
6.908
  0
LINE
  8
0
 10
-11.725
 11
-11.622
 20
6.908
 21
7.226
  0
LINE
  8
0
 10
-11.622
 11
-11.454
 20
7.226
 21
7.515
  0
LINE
  8
0
 10
-11.454
 11
-11.231
 20
7.515
 21
7.764
  0
LINE
  8
0
 10
-11.231
 11
-10.96
 20
7.764
 21
7.961
  0
LINE
  8
0
 10
-10.96
 11
-10.654
 20
7.961
 21
8.097
  0
LINE
  8
0
 10
-10.654
 11
-10.327
 20
8.097
 21
8.166
  0
LINE
  8
0
 10
-10.327
 11
-9.993
 20
8.166
 21
8.166
  0
LINE
  8
0
 10
-9.993
 11
-9.666
 20
8.166
 21
8.097
  0
LINE
  8
0
 10
-9.666
 11
-9.36
 20
8.097
 21
7.961
  0
LINE
  8
0
 10
-9.36
 11
-9.089
 20
7.961
 21
7.764
  0
LINE
  8
0
 10
-9.089
 11
-8.866
 20
7.764
 21
7.515
  0
LINE
  8
0
 10
-8.866
 11
-8.698
 20
7.515
 21
7.226
  0
LINE
  8
0
 10
-8.698
 11
-8.595
 20
7.226
 21
6.908
  0
LINE
  8
0
 10
-8.595
 11
-8.56
 20
6.908
 21
6.575
  0
LINE
  8
0
 10
-8.56
 11
-8.595
 20
6.575
 21
6.242
  0
LINE
  8
0
 10
-8.595
 11
-8.698
 20
6.242
 21
5.924
  0
LINE
  8
0
 10
-8.698
 11
-8.866
 20
5.924
 21
5.635
  0
LINE
  8
0
 10
-8.866
 11
-9.089
 20
5.635
 21
5.386
  0
LINE
  8
0
 10
-9.089
 11
-9.36
 20
5.386
 21
5.189
  0
LINE
  8
0
 10
-9.36
 11
-9.666
 20
5.189
 21
5.053
  0
LINE
  8
0
 10
-9.666
 11
-9.993
 20
5.053
 21
4.984
  0
LINE
  8
0
 10
-9.993
 11
-10.327
 20
4.984
 21
4.984
  0
LINE
  8
0
 10
-10.327
 11
-10.654
 20
4.984
 21
5.053
  0
LINE
  8
0
 10
-10.654
 11
-10.96
 20
5.053
 21
5.189
  0
LINE
  8
0
 10
-10.96
 11
-11.231
 20
5.189
 21
5.386
  0
LINE
  8
0
 10
-11.231
 11
-11.454
 20
5.386
 21
5.635
  0
LINE
  8
0
 10
-11.454
 11
-11.622
 20
5.635
 21
5.924
  0
LINE
  8
0
 10
-11.622
 11
-11.725
 20
5.924
 21
6.242
  0
LINE
  8
0
 10
-11.725
 11
-11.76
 20
6.242
 21
6.575
  0
LINE
  8
0
 10
-11.675
 11
-11.675
 20
13.325
 21
36.675
  0
LINE
  8
0
 10
-11.675
 11
11.675
 20
36.675
 21
36.675
  0
LINE
  8
0
 10
11.675
 11
11.675
 20
36.675
 21
13.325
  0
LINE
  8
0
 10
11.675
 11
-11.675
 20
13.325
 21
13.325
  0
LINE
  8
0
 10
-11.66
 11
-11.66
 20
-22
 21
4
  0
LINE
  8
0
 10
-11.66
 11
-8.66
 20
4
 21
4
  0
LINE
  8
0
 10
-8.66
 11
-8.66
 20
4
 21
-22
  0
LINE
  8
0
 10
-8.66
 11
-11.66
 20
-22
 21
-22
  0
LINE
  8
0
 10
8.56
 11
8.595
 20
-26.575
 21
-26.242
  0
LINE
  8
0
 10
8.595
 11
8.698
 20
-26.242
 21
-25.924
  0
LINE
  8
0
 10
8.698
 11
8.866
 20
-25.924
 21
-25.635
  0
LINE
  8
0
 10
8.866
 11
9.089
 20
-25.635
 21
-25.386
  0
LINE
  8
0
 10
9.089
 11
9.36
 20
-25.386
 21
-25.189
  0
LINE
  8
0
 10
9.36
 11
9.666
 20
-25.189
 21
-25.053
  0
LINE
  8
0
 10
9.666
 11
9.993
 20
-25.053
 21
-24.984
  0
LINE
  8
0
 10
9.993
 11
10.327
 20
-24.984
 21
-24.984
  0
LINE
  8
0
 10
10.327
 11
10.654
 20
-24.984
 21
-25.053
  0
LINE
  8
0
 10
10.654
 11
10.96
 20
-25.053
 21
-25.189
  0
LINE
  8
0
 10
10.96
 11
11.231
 20
-25.189
 21
-25.386
  0
LINE
  8
0
 10
11.231
 11
11.454
 20
-25.386
 21
-25.635
  0
LINE
  8
0
 10
11.454
 11
11.622
 20
-25.635
 21
-25.924
  0
LINE
  8
0
 10
11.622
 11
11.725
 20
-25.924
 21
-26.242
  0
LINE
  8
0
 10
11.725
 11
11.76
 20
-26.242
 21
-26.575
  0
LINE
  8
0
 10
11.76
 11
11.725
 20
-26.575
 21
-26.908
  0
LINE
  8
0
 10
11.725
 11
11.622
 20
-26.908
 21
-27.226
  0
LINE
  8
0
 10
11.622
 11
11.454
 20
-27.226
 21
-27.515
  0
LINE
  8
0
 10
11.454
 11
11.231
 20
-27.515
 21
-27.764
  0
LINE
  8
0
 10
11.231
 11
10.96
 20
-27.764
 21
-27.961
  0
LINE
  8
0
 10
10.96
 11
10.654
 20
-27.961
 21
-28.097
  0
LINE
  8
0
 10
10.654
 11
10.327
 20
-28.097
 21
-28.166
  0
LINE
  8
0
 10
10.327
 11
9.993
 20
-28.166
 21
-28.166
  0
LINE
  8
0
 10
9.993
 11
9.666
 20
-28.166
 21
-28.097
  0
LINE
  8
0
 10
9.666
 11
9.36
 20
-28.097
 21
-27.961
  0
LINE
  8
0
 10
9.36
 11
9.089
 20
-27.961
 21
-27.764
  0
LINE
  8
0
 10
9.089
 11
8.866
 20
-27.764
 21
-27.515
  0
LINE
  8
0
 10
8.866
 11
8.698
 20
-27.515
 21
-27.226
  0
LINE
  8
0
 10
8.698
 11
8.595
 20
-27.226
 21
-26.908
  0
LINE
  8
0
 10
8.595
 11
8.56
 20
-26.908
 21
-26.575
  0
LINE
  8
0
 10
8.56
 11
8.595
 20
6.575
 21
6.908
  0
LINE
  8
0
 10
8.595
 11
8.698
 20
6.908
 21
7.226
  0
LINE
  8
0
 10
8.698
 11
8.866
 20
7.226
 21
7.515
  0
LINE
  8
0
 10
8.866
 11
9.089
 20
7.515
 21
7.764
  0
LINE
  8
0
 10
9.089
 11
9.36
 20
7.764
 21
7.961
  0
LINE
  8
0
 10
9.36
 11
9.666
 20
7.961
 21
8.097
  0
LINE
  8
0
 10
9.666
 11
9.993
 20
8.097
 21
8.166
  0
LINE
  8
0
 10
9.993
 11
10.327
 20
8.166
 21
8.166
  0
LINE
  8
0
 10
10.327
 11
10.654
 20
8.166
 21
8.097
  0
LINE
  8
0
 10
10.654
 11
10.96
 20
8.097
 21
7.961
  0
LINE
  8
0
 10
10.96
 11
11.231
 20
7.961
 21
7.764
  0
LINE
  8
0
 10
11.231
 11
11.454
 20
7.764
 21
7.515
  0
LINE
  8
0
 10
11.454
 11
11.622
 20
7.515
 21
7.226
  0
LINE
  8
0
 10
11.622
 11
11.725
 20
7.226
 21
6.908
  0
LINE
  8
0
 10
11.725
 11
11.76
 20
6.908
 21
6.575
  0
LINE
  8
0
 10
11.76
 11
11.725
 20
6.575
 21
6.242
  0
LINE
  8
0
 10
11.725
 11
11.622
 20
6.242
 21
5.924
  0
LINE
  8
0
 10
11.622
 11
11.454
 20
5.924
 21
5.635
  0
LINE
  8
0
 10
11.454
 11
11.231
 20
5.635
 21
5.386
  0
LINE
  8
0
 10
11.231
 11
10.96
 20
5.386
 21
5.189
  0
LINE
  8
0
 10
10.96
 11
10.654
 20
5.189
 21
5.053
  0
LINE
  8
0
 10
10.654
 11
10.327
 20
5.053
 21
4.984
  0
LINE
  8
0
 10
10.327
 11
9.993
 20
4.984
 21
4.984
  0
LINE
  8
0
 10
9.993
 11
9.666
 20
4.984
 21
5.053
  0
LINE
  8
0
 10
9.666
 11
9.36
 20
5.053
 21
5.189
  0
LINE
  8
0
 10
9.36
 11
9.089
 20
5.189
 21
5.386
  0
LINE
  8
0
 10
9.089
 11
8.866
 20
5.386
 21
5.635
  0
LINE
  8
0
 10
8.866
 11
8.698
 20
5.635
 21
5.924
  0
LINE
  8
0
 10
8.698
 11
8.595
 20
5.924
 21
6.242
  0
LINE
  8
0
 10
8.595
 11
8.56
 20
6.242
 21
6.575
  0
LINE
  8
0
 10
8.66
 11
8.66
 20
-22
 21
4
  0
LINE
  8
0
 10
8.66
 11
11.66
 20
4
 21
4
  0
LINE
  8
0
 10
11.66
 11
11.66
 20
4
 21
-22
  0
LINE
  8
0
 10
11.66
 11
8.66
 20
-22
 21
-22
  0
LINE
  8
0
 10
13.825
 11
13.849
 20
25
 21
25.229
  0
LINE
  8
0
 10
13.849
 11
13.92
 20
25.229
 21
25.447
  0
LINE
  8
0
 10
13.92
 11
14.035
 20
25.447
 21
25.647
  0
LINE
  8
0
 10
14.035
 11
14.189
 20
25.647
 21
25.817
  0
LINE
  8
0
 10
14.189
 11
14.375
 20
25.817
 21
25.953
  0
LINE
  8
0
 10
14.375
 11
14.585
 20
25.953
 21
26.046
  0
LINE
  8
0
 10
14.585
 11
14.81
 20
26.046
 21
26.094
  0
LINE
  8
0
 10
14.81
 11
15.04
 20
26.094
 21
26.094
  0
LINE
  8
0
 10
15.04
 11
15.265
 20
26.094
 21
26.046
  0
LINE
  8
0
 10
15.265
 11
15.475
 20
26.046
 21
25.953
  0
LINE
  8
0
 10
15.475
 11
15.661
 20
25.953
 21
25.817
  0
LINE
  8
0
 10
15.661
 11
15.815
 20
25.817
 21
25.647
  0
LINE
  8
0
 10
15.815
 11
15.93
 20
25.647
 21
25.447
  0
LINE
  8
0
 10
15.93
 11
16.001
 20
25.447
 21
25.229
  0
LINE
  8
0
 10
16.001
 11
16.025
 20
25.229
 21
25
  0
LINE
  8
0
 10
16.025
 11
16.001
 20
25
 21
24.771
  0
LINE
  8
0
 10
16.001
 11
15.93
 20
24.771
 21
24.553
  0
LINE
  8
0
 10
15.93
 11
15.815
 20
24.553
 21
24.353
  0
LINE
  8
0
 10
15.815
 11
15.661
 20
24.353
 21
24.183
  0
LINE
  8
0
 10
15.661
 11
15.475
 20
24.183
 21
24.047
  0
LINE
  8
0
 10
15.475
 11
15.265
 20
24.047
 21
23.954
  0
LINE
  8
0
 10
15.265
 11
15.04
 20
23.954
 21
23.906
  0
LINE
  8
0
 10
15.04
 11
14.81
 20
23.906
 21
23.906
  0
LINE
  8
0
 10
14.81
 11
14.585
 20
23.906
 21
23.954
  0
LINE
  8
0
 10
14.585
 11
14.375
 20
23.954
 21
24.047
  0
LINE
  8
0
 10
14.375
 11
14.189
 20
24.047
 21
24.183
  0
LINE
  8
0
 10
14.189
 11
14.035
 20
24.183
 21
24.353
  0
LINE
  8
0
 10
14.035
 11
13.92
 20
24.353
 21
24.553
  0
LINE
  8
0
 10
13.92
 11
13.849
 20
24.553
 21
24.771
  0
LINE
  8
0
 10
13.849
 11
13.825
 20
24.771
 21
25
  0
LINE
  8
0
 10
22.65
 11
22.685
 20
-35
 21
-34.667
  0
LINE
  8
0
 10
22.685
 11
22.788
 20
-34.667
 21
-34.349
  0
LINE
  8
0
 10
22.788
 11
22.956
 20
-34.349
 21
-34.06
  0
LINE
  8
0
 10
22.956
 11
23.179
 20
-34.06
 21
-33.811
  0
LINE
  8
0
 10
23.179
 11
23.45
 20
-33.811
 21
-33.614
  0
LINE
  8
0
 10
23.45
 11
23.756
 20
-33.614
 21
-33.478
  0
LINE
  8
0
 10
23.756
 11
24.083
 20
-33.478
 21
-33.409
  0
LINE
  8
0
 10
24.083
 11
24.417
 20
-33.409
 21
-33.409
  0
LINE
  8
0
 10
24.417
 11
24.744
 20
-33.409
 21
-33.478
  0
LINE
  8
0
 10
24.744
 11
25.05
 20
-33.478
 21
-33.614
  0
LINE
  8
0
 10
25.05
 11
25.321
 20
-33.614
 21
-33.811
  0
LINE
  8
0
 10
25.321
 11
25.544
 20
-33.811
 21
-34.06
  0
LINE
  8
0
 10
25.544
 11
25.712
 20
-34.06
 21
-34.349
  0
LINE
  8
0
 10
25.712
 11
25.815
 20
-34.349
 21
-34.667
  0
LINE
  8
0
 10
25.815
 11
25.85
 20
-34.667
 21
-35
  0
LINE
  8
0
 10
25.85
 11
25.815
 20
-35
 21
-35.333
  0
LINE
  8
0
 10
25.815
 11
25.712
 20
-35.333
 21
-35.651
  0
LINE
  8
0
 10
25.712
 11
25.544
 20
-35.651
 21
-35.94
  0
LINE
  8
0
 10
25.544
 11
25.321
 20
-35.94
 21
-36.189
  0
LINE
  8
0
 10
25.321
 11
25.05
 20
-36.189
 21
-36.386
  0
LINE
  8
0
 10
25.05
 11
24.744
 20
-36.386
 21
-36.522
  0
LINE
  8
0
 10
24.744
 11
24.417
 20
-36.522
 21
-36.591
  0
LINE
  8
0
 10
24.417
 11
24.083
 20
-36.591
 21
-36.591
  0
LINE
  8
0
 10
24.083
 11
23.756
 20
-36.591
 21
-36.522
  0
LINE
  8
0
 10
23.756
 11
23.45
 20
-36.522
 21
-36.386
  0
LINE
  8
0
 10
23.45
 11
23.179
 20
-36.386
 21
-36.189
  0
LINE
  8
0
 10
23.179
 11
22.956
 20
-36.189
 21
-35.94
  0
LINE
  8
0
 10
22.956
 11
22.788
 20
-35.94
 21
-35.651
  0
LINE
  8
0
 10
22.788
 11
22.685
 20
-35.651
 21
-35.333
  0
LINE
  8
0
 10
22.685
 11
22.65
 20
-35.333
 21
-35
  0
LINE
  8
0
 10
22.65
 11
22.685
 20
35
 21
35.333
  0
LINE
  8
0
 10
22.685
 11
22.788
 20
35.333
 21
35.651
  0
LINE
  8
0
 10
22.788
 11
22.956
 20
35.651
 21
35.94
  0
LINE
  8
0
 10
22.956
 11
23.179
 20
35.94
 21
36.189
  0
LINE
  8
0
 10
23.179
 11
23.45
 20
36.189
 21
36.386
  0
LINE
  8
0
 10
23.45
 11
23.756
 20
36.386
 21
36.522
  0
LINE
  8
0
 10
23.756
 11
24.083
 20
36.522
 21
36.591
  0
LINE
  8
0
 10
24.083
 11
24.417
 20
36.591
 21
36.591
  0
LINE
  8
0
 10
24.417
 11
24.744
 20
36.591
 21
36.522
  0
LINE
  8
0
 10
24.744
 11
25.05
 20
36.522
 21
36.386
  0
LINE
  8
0
 10
25.05
 11
25.321
 20
36.386
 21
36.189
  0
LINE
  8
0
 10
25.321
 11
25.544
 20
36.189
 21
35.94
  0
LINE
  8
0
 10
25.544
 11
25.712
 20
35.94
 21
35.651
  0
LINE
  8
0
 10
25.712
 11
25.815
 20
35.651
 21
35.333
  0
LINE
  8
0
 10
25.815
 11
25.85
 20
35.333
 21
35
  0
LINE
  8
0
 10
25.85
 11
25.815
 20
35
 21
34.667
  0
LINE
  8
0
 10
25.815
 11
25.712
 20
34.667
 21
34.349
  0
LINE
  8
0
 10
25.712
 11
25.544
 20
34.349
 21
34.06
  0
LINE
  8
0
 10
25.544
 11
25.321
 20
34.06
 21
33.811
  0
LINE
  8
0
 10
25.321
 11
25.05
 20
33.811
 21
33.614
  0
LINE
  8
0
 10
25.05
 11
24.744
 20
33.614
 21
33.478
  0
LINE
  8
0
 10
24.744
 11
24.417
 20
33.478
 21
33.409
  0
LINE
  8
0
 10
24.417
 11
24.083
 20
33.409
 21
33.409
  0
LINE
  8
0
 10
24.083
 11
23.756
 20
33.409
 21
33.478
  0
LINE
  8
0
 10
23.756
 11
23.45
 20
33.478
 21
33.614
  0
LINE
  8
0
 10
23.45
 11
23.179
 20
33.614
 21
33.811
  0
LINE
  8
0
 10
23.179
 11
22.956
 20
33.811
 21
34.06
  0
LINE
  8
0
 10
22.956
 11
22.788
 20
34.06
 21
34.349
  0
LINE
  8
0
 10
22.788
 11
22.685
 20
34.349
 21
34.667
  0
LINE
  8
0
 10
22.685
 11
22.65
 20
34.667
 21
35
  0
ENDSEC
  0
SECTION
  2
OBJECTS
  0
DICTIONARY
  0
ENDSEC
  0
EOF
