  0
SECTION
  2
BLOCKS
  0
ENDSEC
  0
SECTION
  2
ENTITIES
  0
LINE
  8
0
 10
-29.25
 11
-29.25
 20
-40
 21
40
  0
LINE
  8
0
 10
-29.25
 11
29.25
 20
40
 21
40
  0
LINE
  8
0
 10
29.25
 11
29.25
 20
40
 21
-40
  0
LINE
  8
0
 10
29.25
 11
-29.25
 20
-40
 21
-40
  0
LINE
  8
0
 10
-25.85
 11
-25.815
 20
-35
 21
-34.667
  0
LINE
  8
0
 10
-25.815
 11
-25.712
 20
-34.667
 21
-34.349
  0
LINE
  8
0
 10
-25.712
 11
-25.544
 20
-34.349
 21
-34.06
  0
LINE
  8
0
 10
-25.544
 11
-25.321
 20
-34.06
 21
-33.811
  0
LINE
  8
0
 10
-25.321
 11
-25.05
 20
-33.811
 21
-33.614
  0
LINE
  8
0
 10
-25.05
 11
-24.744
 20
-33.614
 21
-33.478
  0
LINE
  8
0
 10
-24.744
 11
-24.417
 20
-33.478
 21
-33.409
  0
LINE
  8
0
 10
-24.417
 11
-24.083
 20
-33.409
 21
-33.409
  0
LINE
  8
0
 10
-24.083
 11
-23.756
 20
-33.409
 21
-33.478
  0
LINE
  8
0
 10
-23.756
 11
-23.45
 20
-33.478
 21
-33.614
  0
LINE
  8
0
 10
-23.45
 11
-23.179
 20
-33.614
 21
-33.811
  0
LINE
  8
0
 10
-23.179
 11
-22.956
 20
-33.811
 21
-34.06
  0
LINE
  8
0
 10
-22.956
 11
-22.788
 20
-34.06
 21
-34.349
  0
LINE
  8
0
 10
-22.788
 11
-22.685
 20
-34.349
 21
-34.667
  0
LINE
  8
0
 10
-22.685
 11
-22.65
 20
-34.667
 21
-35
  0
LINE
  8
0
 10
-22.65
 11
-22.685
 20
-35
 21
-35.333
  0
LINE
  8
0
 10
-22.685
 11
-22.788
 20
-35.333
 21
-35.651
  0
LINE
  8
0
 10
-22.788
 11
-22.956
 20
-35.651
 21
-35.94
  0
LINE
  8
0
 10
-22.956
 11
-23.179
 20
-35.94
 21
-36.189
  0
LINE
  8
0
 10
-23.179
 11
-23.45
 20
-36.189
 21
-36.386
  0
LINE
  8
0
 10
-23.45
 11
-23.756
 20
-36.386
 21
-36.522
  0
LINE
  8
0
 10
-23.756
 11
-24.083
 20
-36.522
 21
-36.591
  0
LINE
  8
0
 10
-24.083
 11
-24.417
 20
-36.591
 21
-36.591
  0
LINE
  8
0
 10
-24.417
 11
-24.744
 20
-36.591
 21
-36.522
  0
LINE
  8
0
 10
-24.744
 11
-25.05
 20
-36.522
 21
-36.386
  0
LINE
  8
0
 10
-25.05
 11
-25.321
 20
-36.386
 21
-36.189
  0
LINE
  8
0
 10
-25.321
 11
-25.544
 20
-36.189
 21
-35.94
  0
LINE
  8
0
 10
-25.544
 11
-25.712
 20
-35.94
 21
-35.651
  0
LINE
  8
0
 10
-25.712
 11
-25.815
 20
-35.651
 21
-35.333
  0
LINE
  8
0
 10
-25.815
 11
-25.85
 20
-35.333
 21
-35
  0
LINE
  8
0
 10
-25.85
 11
-25.815
 20
35
 21
35.333
  0
LINE
  8
0
 10
-25.815
 11
-25.712
 20
35.333
 21
35.651
  0
LINE
  8
0
 10
-25.712
 11
-25.544
 20
35.651
 21
35.94
  0
LINE
  8
0
 10
-25.544
 11
-25.321
 20
35.94
 21
36.189
  0
LINE
  8
0
 10
-25.321
 11
-25.05
 20
36.189
 21
36.386
  0
LINE
  8
0
 10
-25.05
 11
-24.744
 20
36.386
 21
36.522
  0
LINE
  8
0
 10
-24.744
 11
-24.417
 20
36.522
 21
36.591
  0
LINE
  8
0
 10
-24.417
 11
-24.083
 20
36.591
 21
36.591
  0
LINE
  8
0
 10
-24.083
 11
-23.756
 20
36.591
 21
36.522
  0
LINE
  8
0
 10
-23.756
 11
-23.45
 20
36.522
 21
36.386
  0
LINE
  8
0
 10
-23.45
 11
-23.179
 20
36.386
 21
36.189
  0
LINE
  8
0
 10
-23.179
 11
-22.956
 20
36.189
 21
35.94
  0
LINE
  8
0
 10
-22.956
 11
-22.788
 20
35.94
 21
35.651
  0
LINE
  8
0
 10
-22.788
 11
-22.685
 20
35.651
 21
35.333
  0
LINE
  8
0
 10
-22.685
 11
-22.65
 20
35.333
 21
35
  0
LINE
  8
0
 10
-22.65
 11
-22.685
 20
35
 21
34.667
  0
LINE
  8
0
 10
-22.685
 11
-22.788
 20
34.667
 21
34.349
  0
LINE
  8
0
 10
-22.788
 11
-22.956
 20
34.349
 21
34.06
  0
LINE
  8
0
 10
-22.956
 11
-23.179
 20
34.06
 21
33.811
  0
LINE
  8
0
 10
-23.179
 11
-23.45
 20
33.811
 21
33.614
  0
LINE
  8
0
 10
-23.45
 11
-23.756
 20
33.614
 21
33.478
  0
LINE
  8
0
 10
-23.756
 11
-24.083
 20
33.478
 21
33.409
  0
LINE
  8
0
 10
-24.083
 11
-24.417
 20
33.409
 21
33.409
  0
LINE
  8
0
 10
-24.417
 11
-24.744
 20
33.409
 21
33.478
  0
LINE
  8
0
 10
-24.744
 11
-25.05
 20
33.478
 21
33.614
  0
LINE
  8
0
 10
-25.05
 11
-25.321
 20
33.614
 21
33.811
  0
LINE
  8
0
 10
-25.321
 11
-25.544
 20
33.811
 21
34.06
  0
LINE
  8
0
 10
-25.544
 11
-25.712
 20
34.06
 21
34.349
  0
LINE
  8
0
 10
-25.712
 11
-25.815
 20
34.349
 21
34.667
  0
LINE
  8
0
 10
-25.815
 11
-25.85
 20
34.667
 21
35
  0
LINE
  8
0
 10
-16.675
 11
-16.675
 20
13.325
 21
36.675
  0
LINE
  8
0
 10
-16.675
 11
16.675
 20
36.675
 21
36.675
  0
LINE
  8
0
 10
16.675
 11
16.675
 20
36.675
 21
13.325
  0
LINE
  8
0
 10
16.675
 11
-16.675
 20
13.325
 21
13.325
  0
LINE
  8
0
 10
-12.7
 11
-12.7
 20
-29.05
 21
9.05
  0
LINE
  8
0
 10
-12.7
 11
12.7
 20
9.05
 21
9.05
  0
LINE
  8
0
 10
12.7
 11
12.7
 20
9.05
 21
-29.05
  0
LINE
  8
0
 10
12.7
 11
-12.7
 20
-29.05
 21
-29.05
  0
LINE
  8
0
 10
22.65
 11
22.685
 20
-35
 21
-34.667
  0
LINE
  8
0
 10
22.685
 11
22.788
 20
-34.667
 21
-34.349
  0
LINE
  8
0
 10
22.788
 11
22.956
 20
-34.349
 21
-34.06
  0
LINE
  8
0
 10
22.956
 11
23.179
 20
-34.06
 21
-33.811
  0
LINE
  8
0
 10
23.179
 11
23.45
 20
-33.811
 21
-33.614
  0
LINE
  8
0
 10
23.45
 11
23.756
 20
-33.614
 21
-33.478
  0
LINE
  8
0
 10
23.756
 11
24.083
 20
-33.478
 21
-33.409
  0
LINE
  8
0
 10
24.083
 11
24.417
 20
-33.409
 21
-33.409
  0
LINE
  8
0
 10
24.417
 11
24.744
 20
-33.409
 21
-33.478
  0
LINE
  8
0
 10
24.744
 11
25.05
 20
-33.478
 21
-33.614
  0
LINE
  8
0
 10
25.05
 11
25.321
 20
-33.614
 21
-33.811
  0
LINE
  8
0
 10
25.321
 11
25.544
 20
-33.811
 21
-34.06
  0
LINE
  8
0
 10
25.544
 11
25.712
 20
-34.06
 21
-34.349
  0
LINE
  8
0
 10
25.712
 11
25.815
 20
-34.349
 21
-34.667
  0
LINE
  8
0
 10
25.815
 11
25.85
 20
-34.667
 21
-35
  0
LINE
  8
0
 10
25.85
 11
25.815
 20
-35
 21
-35.333
  0
LINE
  8
0
 10
25.815
 11
25.712
 20
-35.333
 21
-35.651
  0
LINE
  8
0
 10
25.712
 11
25.544
 20
-35.651
 21
-35.94
  0
LINE
  8
0
 10
25.544
 11
25.321
 20
-35.94
 21
-36.189
  0
LINE
  8
0
 10
25.321
 11
25.05
 20
-36.189
 21
-36.386
  0
LINE
  8
0
 10
25.05
 11
24.744
 20
-36.386
 21
-36.522
  0
LINE
  8
0
 10
24.744
 11
24.417
 20
-36.522
 21
-36.591
  0
LINE
  8
0
 10
24.417
 11
24.083
 20
-36.591
 21
-36.591
  0
LINE
  8
0
 10
24.083
 11
23.756
 20
-36.591
 21
-36.522
  0
LINE
  8
0
 10
23.756
 11
23.45
 20
-36.522
 21
-36.386
  0
LINE
  8
0
 10
23.45
 11
23.179
 20
-36.386
 21
-36.189
  0
LINE
  8
0
 10
23.179
 11
22.956
 20
-36.189
 21
-35.94
  0
LINE
  8
0
 10
22.956
 11
22.788
 20
-35.94
 21
-35.651
  0
LINE
  8
0
 10
22.788
 11
22.685
 20
-35.651
 21
-35.333
  0
LINE
  8
0
 10
22.685
 11
22.65
 20
-35.333
 21
-35
  0
LINE
  8
0
 10
22.65
 11
22.685
 20
35
 21
35.333
  0
LINE
  8
0
 10
22.685
 11
22.788
 20
35.333
 21
35.651
  0
LINE
  8
0
 10
22.788
 11
22.956
 20
35.651
 21
35.94
  0
LINE
  8
0
 10
22.956
 11
23.179
 20
35.94
 21
36.189
  0
LINE
  8
0
 10
23.179
 11
23.45
 20
36.189
 21
36.386
  0
LINE
  8
0
 10
23.45
 11
23.756
 20
36.386
 21
36.522
  0
LINE
  8
0
 10
23.756
 11
24.083
 20
36.522
 21
36.591
  0
LINE
  8
0
 10
24.083
 11
24.417
 20
36.591
 21
36.591
  0
LINE
  8
0
 10
24.417
 11
24.744
 20
36.591
 21
36.522
  0
LINE
  8
0
 10
24.744
 11
25.05
 20
36.522
 21
36.386
  0
LINE
  8
0
 10
25.05
 11
25.321
 20
36.386
 21
36.189
  0
LINE
  8
0
 10
25.321
 11
25.544
 20
36.189
 21
35.94
  0
LINE
  8
0
 10
25.544
 11
25.712
 20
35.94
 21
35.651
  0
LINE
  8
0
 10
25.712
 11
25.815
 20
35.651
 21
35.333
  0
LINE
  8
0
 10
25.815
 11
25.85
 20
35.333
 21
35
  0
LINE
  8
0
 10
25.85
 11
25.815
 20
35
 21
34.667
  0
LINE
  8
0
 10
25.815
 11
25.712
 20
34.667
 21
34.349
  0
LINE
  8
0
 10
25.712
 11
25.544
 20
34.349
 21
34.06
  0
LINE
  8
0
 10
25.544
 11
25.321
 20
34.06
 21
33.811
  0
LINE
  8
0
 10
25.321
 11
25.05
 20
33.811
 21
33.614
  0
LINE
  8
0
 10
25.05
 11
24.744
 20
33.614
 21
33.478
  0
LINE
  8
0
 10
24.744
 11
24.417
 20
33.478
 21
33.409
  0
LINE
  8
0
 10
24.417
 11
24.083
 20
33.409
 21
33.409
  0
LINE
  8
0
 10
24.083
 11
23.756
 20
33.409
 21
33.478
  0
LINE
  8
0
 10
23.756
 11
23.45
 20
33.478
 21
33.614
  0
LINE
  8
0
 10
23.45
 11
23.179
 20
33.614
 21
33.811
  0
LINE
  8
0
 10
23.179
 11
22.956
 20
33.811
 21
34.06
  0
LINE
  8
0
 10
22.956
 11
22.788
 20
34.06
 21
34.349
  0
LINE
  8
0
 10
22.788
 11
22.685
 20
34.349
 21
34.667
  0
LINE
  8
0
 10
22.685
 11
22.65
 20
34.667
 21
35
  0
ENDSEC
  0
SECTION
  2
OBJECTS
  0
DICTIONARY
  0
ENDSEC
  0
EOF
