  0
SECTION
  2
HEADER
  9
$ACADVER
  1
AC1014
  9
$HANDSEED
  5
FFFF
  9
$MEASUREMENT
 70
     1
  0
ENDSEC
  0
SECTION
  2
TABLES
  0
TABLE
  2
VPORT
  5
8
330
0
100
AcDbSymbolTable
 70
     4
  0
VPORT
  5
2E
330
8
100
AcDbSymbolTableRecord
100
AcDbViewportTableRecord
  2
*ACTIVE
 70
     0
 10
0.0
 20
0.0
 11
1.0
 21
1.0
 12
210.0
 22
148.5
 13
0.0
 23
0.0
 14
10.0
 24
10.0
 15
10.0
 25
10.0
 16
0.0
 26
0.0
 36
1.0
 17
0.0
 27
0.0
 37
0.0
 40
341.0
 41
1.24
 42
50.0
 43
0.0
 44
0.0
 50
0.0
 51
0.0
 71
     0
 72
   100
 73
     1
 74
     3
 75
     0
 76
     0
 77
     0
 78
     0
  0
ENDTAB
  0
TABLE
  2
LTYPE
  5
5
330
0
100
AcDbSymbolTable
 70
     1
  0
LTYPE
  5
14
330
5
100
AcDbSymbolTableRecord
100
AcDbLinetypeTableRecord
  2
BYBLOCK
 70
     0
  3

 72
    65
 73
     0
 40
0.0
  0
LTYPE
  5
15
330
5
100
AcDbSymbolTableRecord
100
AcDbLinetypeTableRecord
  2
BYLAYER
 70
     0
  3

 72
    65
 73
     0
 40
0.0
  0
LTYPE
  5
16
330
5
100
AcDbSymbolTableRecord
100
AcDbLinetypeTableRecord
  2
CONTINUOUS
 70
     0
  3
Solid line
 72
    65
 73
     0
 40
0.0
  0
ENDTAB
  0
TABLE
  2
LAYER
  5
2
100
AcDbSymbolTable
 70
2
  0
LAYER
  5
50
100
AcDbSymbolTableRecord
100
AcDbLayerTableRecord
  2
0
 70
0
  6
CONTINUOUS
  0
LAYER
  5
51
100
AcDbSymbolTableRecord
100
AcDbLayerTableRecord
  2
Layer_1
 70
0
  6
CONTINUOUS
  0
ENDTAB
  0
TABLE
  2
STYLE
  5
3
330
0
100
AcDbSymbolTable
 70
     1
  0
STYLE
  5
11
330
3
100
AcDbSymbolTableRecord
100
AcDbTextStyleTableRecord
  2
STANDARD
 70
     0
 40
0.0
 41
1.0
 50
0.0
 71
     0
 42
2.5
  3
txt
  4

  0
ENDTAB
  0
TABLE
  2
VIEW
  5
6
330
0
100
AcDbSymbolTable
 70
     0
  0
ENDTAB
  0
TABLE
  2
UCS
  5
7
330
0
100
AcDbSymbolTable
 70
     0
  0
ENDTAB
  0
TABLE
  2
APPID
  5
9
330
0
100
AcDbSymbolTable
 70
     2
  0
APPID
  5
12
330
9
100
AcDbSymbolTableRecord
100
AcDbRegAppTableRecord
  2
ACAD
 70
     0
  0
ENDTAB
  0
TABLE
  2
DIMSTYLE
  5
A
330
0
100
AcDbSymbolTable
 70
     1
  0
DIMSTYLE
105
27
330
A
100
AcDbSymbolTableRecord
100
AcDbDimStyleTableRecord
  2
ISO-25
 70
     0
  3

  4

  5

  6

  7

 40
1.0
 41
2.5
 42
0.625
 43
3.75
 44
1.25
 45
0.0
 46
0.0
 47
0.0
 48
0.0
140
2.5
141
2.5
142
0.0
143
0.03937007874016
144
1.0
145
0.0
146
1.0
147
0.625
 71
     0
 72
     0
 73
     0
 74
     0
 75
     0
 76
     0
 77
     1
 78
     8
170
     0
171
     3
172
     1
173
     0
174
     0
175
     0
176
     0
177
     0
178
     0
270
     2
271
     2
272
     2
273
     2
274
     3
340
11
275
     0
280
     0
281
     0
282
     0
283
     0
284
     8
285
     0
286
     0
287
     3
288
     0
  0
ENDTAB
  0
TABLE
  2
BLOCK_RECORD
  5
1
330
0
100
AcDbSymbolTable
 70
     1
  0
BLOCK_RECORD
  5
1F
330
1
100
AcDbSymbolTableRecord
100
AcDbBlockTableRecord
  2
*MODEL_SPACE
  0
BLOCK_RECORD
  5
1B
330
1
100
AcDbSymbolTableRecord
100
AcDbBlockTableRecord
  2
*PAPER_SPACE
  0
ENDTAB
  0
ENDSEC
  0
SECTION
  2
BLOCKS
  0
BLOCK
  5
20
330
1F
100
AcDbEntity
  8
0
100
AcDbBlockBegin
  2
*MODEL_SPACE
 70
     0
 10
0.0
 20
0.0
 30
0.0
  3
*MODEL_SPACE
  1

  0
ENDBLK
  5
21
330
1F
100
AcDbEntity
  8
0
100
AcDbBlockEnd
  0
BLOCK
  5
1C
330
1B
100
AcDbEntity
 67
     1
  8
0
100
AcDbBlockBegin
  2
*PAPER_SPACE
  1

  0
ENDBLK
  5
1D
330
1B
100
AcDbEntity
 67
     1
  8
0
100
AcDbBlockEnd
  0
ENDSEC
  0
SECTION
  2
ENTITIES
  0
LWPOLYLINE
  5
100
100
AcDbEntity
  8
Layer_1
 62
7
100
AcDbPolyline
 90
5
 70
0
 10
68.318256
 20
150.298411
 30
0.0
 10
68.318256
 20
230.298415
 30
0.0
 10
126.818255
 20
230.298415
 30
0.0
 10
126.818255
 20
150.298411
 30
0.0
 10
68.318256
 20
150.298411
 30
0.0
  0
LWPOLYLINE
  5
101
100
AcDbEntity
  8
Layer_1
 62
7
100
AcDbPolyline
 90
31
 70
0
 10
71.718255
 20
155.298401
 30
0.0
 10
71.753255
 20
155.631423
 30
0.0
 10
71.856255
 20
155.949403
 30
0.0
 10
72.024255
 20
156.238427
 30
0.0
 10
72.247255
 20
156.487403
 30
0.0
 10
72.518255
 20
156.684423
 30
0.0
 10
72.824255
 20
156.820425
 30
0.0
 10
73.151255
 20
156.889401
 30
0.0
 10
73.485255
 20
156.889401
 30
0.0
 10
73.812255
 20
156.820425
 30
0.0
 10
74.118255
 20
156.684423
 30
0.0
 10
74.389255
 20
156.487403
 30
0.0
 10
74.612255
 20
156.238427
 30
0.0
 10
74.780255
 20
155.949403
 30
0.0
 10
74.883255
 20
155.631423
 30
0.0
 10
74.918255
 20
155.298401
 30
0.0
 10
74.883255
 20
154.965407
 30
0.0
 10
74.780255
 20
154.647427
 30
0.0
 10
74.612255
 20
154.358403
 30
0.0
 10
74.389255
 20
154.109427
 30
0.0
 10
74.118255
 20
153.912408
 30
0.0
 10
73.812255
 20
153.776405
 30
0.0
 10
73.485255
 20
153.707401
 30
0.0
 10
73.151255
 20
153.707401
 30
0.0
 10
72.824255
 20
153.776405
 30
0.0
 10
72.518255
 20
153.912408
 30
0.0
 10
72.247255
 20
154.109427
 30
0.0
 10
72.024255
 20
154.358403
 30
0.0
 10
71.856255
 20
154.647427
 30
0.0
 10
71.753255
 20
154.965407
 30
0.0
 10
71.718255
 20
155.298401
 30
0.0
  0
LWPOLYLINE
  5
102
100
AcDbEntity
  8
Layer_1
 62
7
100
AcDbPolyline
 90
31
 70
0
 10
71.718255
 20
225.298413
 30
0.0
 10
71.753255
 20
225.631416
 30
0.0
 10
71.856255
 20
225.949415
 30
0.0
 10
72.024255
 20
226.238414
 30
0.0
 10
72.247255
 20
226.487416
 30
0.0
 10
72.518255
 20
226.684415
 30
0.0
 10
72.824255
 20
226.820415
 30
0.0
 10
73.151255
 20
226.889413
 30
0.0
 10
73.485255
 20
226.889413
 30
0.0
 10
73.812255
 20
226.820415
 30
0.0
 10
74.118255
 20
226.684415
 30
0.0
 10
74.389255
 20
226.487416
 30
0.0
 10
74.612255
 20
226.238414
 30
0.0
 10
74.780255
 20
225.949415
 30
0.0
 10
74.883255
 20
225.631416
 30
0.0
 10
74.918255
 20
225.298413
 30
0.0
 10
74.883255
 20
224.965414
 30
0.0
 10
74.780255
 20
224.647414
 30
0.0
 10
74.612255
 20
224.358416
 30
0.0
 10
74.389255
 20
224.109414
 30
0.0
 10
74.118255
 20
223.912414
 30
0.0
 10
73.812255
 20
223.776414
 30
0.0
 10
73.485255
 20
223.707414
 30
0.0
 10
73.151255
 20
223.707414
 30
0.0
 10
72.824255
 20
223.776414
 30
0.0
 10
72.518255
 20
223.912414
 30
0.0
 10
72.247255
 20
224.109414
 30
0.0
 10
72.024255
 20
224.358416
 30
0.0
 10
71.856255
 20
224.647414
 30
0.0
 10
71.753255
 20
224.965414
 30
0.0
 10
71.718255
 20
225.298413
 30
0.0
  0
LWPOLYLINE
  5
103
100
AcDbEntity
  8
Layer_1
 62
7
100
AcDbPolyline
 90
5
 70
0
 10
84.868255
 20
161.248407
 30
0.0
 10
84.868255
 20
199.348407
 30
0.0
 10
110.268255
 20
199.348407
 30
0.0
 10
110.268255
 20
161.248407
 30
0.0
 10
84.868255
 20
161.248407
 30
0.0
  0
LWPOLYLINE
  5
104
100
AcDbEntity
  8
Layer_1
 62
7
100
AcDbPolyline
 90
31
 70
0
 10
85.893255
 20
215.298414
 30
0.0
 10
86.148255
 20
217.725415
 30
0.0
 10
86.902255
 20
220.047415
 30
0.0
 10
88.123255
 20
222.160416
 30
0.0
 10
89.756255
 20
223.974416
 30
0.0
 10
91.731255
 20
225.409414
 30
0.0
 10
93.960255
 20
226.402413
 30
0.0
 10
96.348255
 20
226.909414
 30
0.0
 10
98.788255
 20
226.909414
 30
0.0
 10
101.176255
 20
226.402413
 30
0.0
 10
103.405255
 20
225.409414
 30
0.0
 10
105.380255
 20
223.974416
 30
0.0
 10
107.013255
 20
222.160416
 30
0.0
 10
108.234255
 20
220.047415
 30
0.0
 10
108.988255
 20
217.725415
 30
0.0
 10
109.243255
 20
215.298414
 30
0.0
 10
108.988255
 20
212.871415
 30
0.0
 10
108.234255
 20
210.549415
 30
0.0
 10
107.013255
 20
208.436415
 30
0.0
 10
105.380255
 20
206.622414
 30
0.0
 10
103.405255
 20
205.187413
 30
0.0
 10
101.176255
 20
204.194417
 30
0.0
 10
98.788255
 20
203.687405
 30
0.0
 10
96.348255
 20
203.687405
 30
0.0
 10
93.960255
 20
204.194417
 30
0.0
 10
91.731255
 20
205.187413
 30
0.0
 10
89.756255
 20
206.622414
 30
0.0
 10
88.123255
 20
208.436415
 30
0.0
 10
86.902255
 20
210.549415
 30
0.0
 10
86.148255
 20
212.871415
 30
0.0
 10
85.893255
 20
215.298414
 30
0.0
  0
LWPOLYLINE
  5
105
100
AcDbEntity
  8
Layer_1
 62
7
100
AcDbPolyline
 90
31
 70
0
 10
120.218255
 20
155.298401
 30
0.0
 10
120.253255
 20
155.631423
 30
0.0
 10
120.356255
 20
155.949403
 30
0.0
 10
120.524255
 20
156.238427
 30
0.0
 10
120.747255
 20
156.487403
 30
0.0
 10
121.018255
 20
156.684423
 30
0.0
 10
121.324255
 20
156.820425
 30
0.0
 10
121.651255
 20
156.889401
 30
0.0
 10
121.985255
 20
156.889401
 30
0.0
 10
122.312255
 20
156.820425
 30
0.0
 10
122.618255
 20
156.684423
 30
0.0
 10
122.889255
 20
156.487403
 30
0.0
 10
123.112255
 20
156.238427
 30
0.0
 10
123.280255
 20
155.949403
 30
0.0
 10
123.383255
 20
155.631423
 30
0.0
 10
123.418255
 20
155.298401
 30
0.0
 10
123.383255
 20
154.965407
 30
0.0
 10
123.280255
 20
154.647427
 30
0.0
 10
123.112255
 20
154.358403
 30
0.0
 10
122.889255
 20
154.109427
 30
0.0
 10
122.618255
 20
153.912408
 30
0.0
 10
122.312255
 20
153.776405
 30
0.0
 10
121.985255
 20
153.707401
 30
0.0
 10
121.651255
 20
153.707401
 30
0.0
 10
121.324255
 20
153.776405
 30
0.0
 10
121.018255
 20
153.912408
 30
0.0
 10
120.747255
 20
154.109427
 30
0.0
 10
120.524255
 20
154.358403
 30
0.0
 10
120.356255
 20
154.647427
 30
0.0
 10
120.253255
 20
154.965407
 30
0.0
 10
120.218255
 20
155.298401
 30
0.0
  0
LWPOLYLINE
  5
106
100
AcDbEntity
  8
Layer_1
 62
7
100
AcDbPolyline
 90
31
 70
0
 10
120.218255
 20
225.298413
 30
0.0
 10
120.253255
 20
225.631416
 30
0.0
 10
120.356255
 20
225.949415
 30
0.0
 10
120.524255
 20
226.238414
 30
0.0
 10
120.747255
 20
226.487416
 30
0.0
 10
121.018255
 20
226.684415
 30
0.0
 10
121.324255
 20
226.820415
 30
0.0
 10
121.651255
 20
226.889413
 30
0.0
 10
121.985255
 20
226.889413
 30
0.0
 10
122.312255
 20
226.820415
 30
0.0
 10
122.618255
 20
226.684415
 30
0.0
 10
122.889255
 20
226.487416
 30
0.0
 10
123.112255
 20
226.238414
 30
0.0
 10
123.280255
 20
225.949415
 30
0.0
 10
123.383255
 20
225.631416
 30
0.0
 10
123.418255
 20
225.298413
 30
0.0
 10
123.383255
 20
224.965414
 30
0.0
 10
123.280255
 20
224.647414
 30
0.0
 10
123.112255
 20
224.358416
 30
0.0
 10
122.889255
 20
224.109414
 30
0.0
 10
122.618255
 20
223.912414
 30
0.0
 10
122.312255
 20
223.776414
 30
0.0
 10
121.985255
 20
223.707414
 30
0.0
 10
121.651255
 20
223.707414
 30
0.0
 10
121.324255
 20
223.776414
 30
0.0
 10
121.018255
 20
223.912414
 30
0.0
 10
120.747255
 20
224.109414
 30
0.0
 10
120.524255
 20
224.358416
 30
0.0
 10
120.356255
 20
224.647414
 30
0.0
 10
120.253255
 20
224.965414
 30
0.0
 10
120.218255
 20
225.298413
 30
0.0
  0
ENDSEC
  0
SECTION
  2
OBJECTS
  0
DICTIONARY
  5
C
330
0
100
AcDbDictionary
  3
ACAD_GROUP
350
D
  3
ACAD_MLINESTYLE
350
17
  0
DICTIONARY
  5
D
330
C
100
AcDbDictionary
  0
DICTIONARY
  5
1A
330
C
100
AcDbDictionary
  0
DICTIONARY
  5
17
330
C
100
AcDbDictionary
  3
STANDARD
350
18
  0
DICTIONARY
  5
19
330
C
100
AcDbDictionary
  0
ENDSEC
  0
EOF
