  0
SECTION
  2
BLOCKS
  0
ENDSEC
  0
SECTION
  2
ENTITIES
  0
LINE
  8
0
 10
-29.25
 11
-29.25
 20
-40
 21
40
  0
LINE
  8
0
 10
-29.25
 11
29.25
 20
40
 21
40
  0
LINE
  8
0
 10
29.25
 11
29.25
 20
40
 21
-40
  0
LINE
  8
0
 10
29.25
 11
-29.25
 20
-40
 21
-40
  0
LINE
  8
0
 10
-25.85
 11
-25.815
 20
-35
 21
-34.667
  0
LINE
  8
0
 10
-25.815
 11
-25.712
 20
-34.667
 21
-34.349
  0
LINE
  8
0
 10
-25.712
 11
-25.544
 20
-34.349
 21
-34.06
  0
LINE
  8
0
 10
-25.544
 11
-25.321
 20
-34.06
 21
-33.811
  0
LINE
  8
0
 10
-25.321
 11
-25.05
 20
-33.811
 21
-33.614
  0
LINE
  8
0
 10
-25.05
 11
-24.744
 20
-33.614
 21
-33.478
  0
LINE
  8
0
 10
-24.744
 11
-24.417
 20
-33.478
 21
-33.409
  0
LINE
  8
0
 10
-24.417
 11
-24.083
 20
-33.409
 21
-33.409
  0
LINE
  8
0
 10
-24.083
 11
-23.756
 20
-33.409
 21
-33.478
  0
LINE
  8
0
 10
-23.756
 11
-23.45
 20
-33.478
 21
-33.614
  0
LINE
  8
0
 10
-23.45
 11
-23.179
 20
-33.614
 21
-33.811
  0
LINE
  8
0
 10
-23.179
 11
-22.956
 20
-33.811
 21
-34.06
  0
LINE
  8
0
 10
-22.956
 11
-22.788
 20
-34.06
 21
-34.349
  0
LINE
  8
0
 10
-22.788
 11
-22.685
 20
-34.349
 21
-34.667
  0
LINE
  8
0
 10
-22.685
 11
-22.65
 20
-34.667
 21
-35
  0
LINE
  8
0
 10
-22.65
 11
-22.685
 20
-35
 21
-35.333
  0
LINE
  8
0
 10
-22.685
 11
-22.788
 20
-35.333
 21
-35.651
  0
LINE
  8
0
 10
-22.788
 11
-22.956
 20
-35.651
 21
-35.94
  0
LINE
  8
0
 10
-22.956
 11
-23.179
 20
-35.94
 21
-36.189
  0
LINE
  8
0
 10
-23.179
 11
-23.45
 20
-36.189
 21
-36.386
  0
LINE
  8
0
 10
-23.45
 11
-23.756
 20
-36.386
 21
-36.522
  0
LINE
  8
0
 10
-23.756
 11
-24.083
 20
-36.522
 21
-36.591
  0
LINE
  8
0
 10
-24.083
 11
-24.417
 20
-36.591
 21
-36.591
  0
LINE
  8
0
 10
-24.417
 11
-24.744
 20
-36.591
 21
-36.522
  0
LINE
  8
0
 10
-24.744
 11
-25.05
 20
-36.522
 21
-36.386
  0
LINE
  8
0
 10
-25.05
 11
-25.321
 20
-36.386
 21
-36.189
  0
LINE
  8
0
 10
-25.321
 11
-25.544
 20
-36.189
 21
-35.94
  0
LINE
  8
0
 10
-25.544
 11
-25.712
 20
-35.94
 21
-35.651
  0
LINE
  8
0
 10
-25.712
 11
-25.815
 20
-35.651
 21
-35.333
  0
LINE
  8
0
 10
-25.815
 11
-25.85
 20
-35.333
 21
-35
  0
LINE
  8
0
 10
-25.85
 11
-25.815
 20
35
 21
35.333
  0
LINE
  8
0
 10
-25.815
 11
-25.712
 20
35.333
 21
35.651
  0
LINE
  8
0
 10
-25.712
 11
-25.544
 20
35.651
 21
35.94
  0
LINE
  8
0
 10
-25.544
 11
-25.321
 20
35.94
 21
36.189
  0
LINE
  8
0
 10
-25.321
 11
-25.05
 20
36.189
 21
36.386
  0
LINE
  8
0
 10
-25.05
 11
-24.744
 20
36.386
 21
36.522
  0
LINE
  8
0
 10
-24.744
 11
-24.417
 20
36.522
 21
36.591
  0
LINE
  8
0
 10
-24.417
 11
-24.083
 20
36.591
 21
36.591
  0
LINE
  8
0
 10
-24.083
 11
-23.756
 20
36.591
 21
36.522
  0
LINE
  8
0
 10
-23.756
 11
-23.45
 20
36.522
 21
36.386
  0
LINE
  8
0
 10
-23.45
 11
-23.179
 20
36.386
 21
36.189
  0
LINE
  8
0
 10
-23.179
 11
-22.956
 20
36.189
 21
35.94
  0
LINE
  8
0
 10
-22.956
 11
-22.788
 20
35.94
 21
35.651
  0
LINE
  8
0
 10
-22.788
 11
-22.685
 20
35.651
 21
35.333
  0
LINE
  8
0
 10
-22.685
 11
-22.65
 20
35.333
 21
35
  0
LINE
  8
0
 10
-22.65
 11
-22.685
 20
35
 21
34.667
  0
LINE
  8
0
 10
-22.685
 11
-22.788
 20
34.667
 21
34.349
  0
LINE
  8
0
 10
-22.788
 11
-22.956
 20
34.349
 21
34.06
  0
LINE
  8
0
 10
-22.956
 11
-23.179
 20
34.06
 21
33.811
  0
LINE
  8
0
 10
-23.179
 11
-23.45
 20
33.811
 21
33.614
  0
LINE
  8
0
 10
-23.45
 11
-23.756
 20
33.614
 21
33.478
  0
LINE
  8
0
 10
-23.756
 11
-24.083
 20
33.478
 21
33.409
  0
LINE
  8
0
 10
-24.083
 11
-24.417
 20
33.409
 21
33.409
  0
LINE
  8
0
 10
-24.417
 11
-24.744
 20
33.409
 21
33.478
  0
LINE
  8
0
 10
-24.744
 11
-25.05
 20
33.478
 21
33.614
  0
LINE
  8
0
 10
-25.05
 11
-25.321
 20
33.614
 21
33.811
  0
LINE
  8
0
 10
-25.321
 11
-25.544
 20
33.811
 21
34.06
  0
LINE
  8
0
 10
-25.544
 11
-25.712
 20
34.06
 21
34.349
  0
LINE
  8
0
 10
-25.712
 11
-25.815
 20
34.349
 21
34.667
  0
LINE
  8
0
 10
-25.815
 11
-25.85
 20
34.667
 21
35
  0
LINE
  8
0
 10
-12.7
 11
-12.7
 20
-29.05
 21
9.05
  0
LINE
  8
0
 10
-12.7
 11
12.7
 20
9.05
 21
9.05
  0
LINE
  8
0
 10
12.7
 11
12.7
 20
9.05
 21
-29.05
  0
LINE
  8
0
 10
12.7
 11
-12.7
 20
-29.05
 21
-29.05
  0
LINE
  8
0
 10
-11.675
 11
-11.42
 20
25
 21
27.427
  0
LINE
  8
0
 10
-11.42
 11
-10.666
 20
27.427
 21
29.749
  0
LINE
  8
0
 10
-10.666
 11
-9.445
 20
29.749
 21
31.862
  0
LINE
  8
0
 10
-9.445
 11
-7.812
 20
31.862
 21
33.676
  0
LINE
  8
0
 10
-7.812
 11
-5.837
 20
33.676
 21
35.111
  0
LINE
  8
0
 10
-5.837
 11
-3.608
 20
35.111
 21
36.104
  0
LINE
  8
0
 10
-3.608
 11
-1.22
 20
36.104
 21
36.611
  0
LINE
  8
0
 10
-1.22
 11
1.22
 20
36.611
 21
36.611
  0
LINE
  8
0
 10
1.22
 11
3.608
 20
36.611
 21
36.104
  0
LINE
  8
0
 10
3.608
 11
5.837
 20
36.104
 21
35.111
  0
LINE
  8
0
 10
5.837
 11
7.812
 20
35.111
 21
33.676
  0
LINE
  8
0
 10
7.812
 11
9.445
 20
33.676
 21
31.862
  0
LINE
  8
0
 10
9.445
 11
10.666
 20
31.862
 21
29.749
  0
LINE
  8
0
 10
10.666
 11
11.42
 20
29.749
 21
27.427
  0
LINE
  8
0
 10
11.42
 11
11.675
 20
27.427
 21
25
  0
LINE
  8
0
 10
11.675
 11
11.42
 20
25
 21
22.573
  0
LINE
  8
0
 10
11.42
 11
10.666
 20
22.573
 21
20.251
  0
LINE
  8
0
 10
10.666
 11
9.445
 20
20.251
 21
18.138
  0
LINE
  8
0
 10
9.445
 11
7.812
 20
18.138
 21
16.324
  0
LINE
  8
0
 10
7.812
 11
5.837
 20
16.324
 21
14.889
  0
LINE
  8
0
 10
5.837
 11
3.608
 20
14.889
 21
13.896
  0
LINE
  8
0
 10
3.608
 11
1.22
 20
13.896
 21
13.389
  0
LINE
  8
0
 10
1.22
 11
-1.22
 20
13.389
 21
13.389
  0
LINE
  8
0
 10
-1.22
 11
-3.608
 20
13.389
 21
13.896
  0
LINE
  8
0
 10
-3.608
 11
-5.837
 20
13.896
 21
14.889
  0
LINE
  8
0
 10
-5.837
 11
-7.812
 20
14.889
 21
16.324
  0
LINE
  8
0
 10
-7.812
 11
-9.445
 20
16.324
 21
18.138
  0
LINE
  8
0
 10
-9.445
 11
-10.666
 20
18.138
 21
20.251
  0
LINE
  8
0
 10
-10.666
 11
-11.42
 20
20.251
 21
22.573
  0
LINE
  8
0
 10
-11.42
 11
-11.675
 20
22.573
 21
25
  0
LINE
  8
0
 10
22.65
 11
22.685
 20
-35
 21
-34.667
  0
LINE
  8
0
 10
22.685
 11
22.788
 20
-34.667
 21
-34.349
  0
LINE
  8
0
 10
22.788
 11
22.956
 20
-34.349
 21
-34.06
  0
LINE
  8
0
 10
22.956
 11
23.179
 20
-34.06
 21
-33.811
  0
LINE
  8
0
 10
23.179
 11
23.45
 20
-33.811
 21
-33.614
  0
LINE
  8
0
 10
23.45
 11
23.756
 20
-33.614
 21
-33.478
  0
LINE
  8
0
 10
23.756
 11
24.083
 20
-33.478
 21
-33.409
  0
LINE
  8
0
 10
24.083
 11
24.417
 20
-33.409
 21
-33.409
  0
LINE
  8
0
 10
24.417
 11
24.744
 20
-33.409
 21
-33.478
  0
LINE
  8
0
 10
24.744
 11
25.05
 20
-33.478
 21
-33.614
  0
LINE
  8
0
 10
25.05
 11
25.321
 20
-33.614
 21
-33.811
  0
LINE
  8
0
 10
25.321
 11
25.544
 20
-33.811
 21
-34.06
  0
LINE
  8
0
 10
25.544
 11
25.712
 20
-34.06
 21
-34.349
  0
LINE
  8
0
 10
25.712
 11
25.815
 20
-34.349
 21
-34.667
  0
LINE
  8
0
 10
25.815
 11
25.85
 20
-34.667
 21
-35
  0
LINE
  8
0
 10
25.85
 11
25.815
 20
-35
 21
-35.333
  0
LINE
  8
0
 10
25.815
 11
25.712
 20
-35.333
 21
-35.651
  0
LINE
  8
0
 10
25.712
 11
25.544
 20
-35.651
 21
-35.94
  0
LINE
  8
0
 10
25.544
 11
25.321
 20
-35.94
 21
-36.189
  0
LINE
  8
0
 10
25.321
 11
25.05
 20
-36.189
 21
-36.386
  0
LINE
  8
0
 10
25.05
 11
24.744
 20
-36.386
 21
-36.522
  0
LINE
  8
0
 10
24.744
 11
24.417
 20
-36.522
 21
-36.591
  0
LINE
  8
0
 10
24.417
 11
24.083
 20
-36.591
 21
-36.591
  0
LINE
  8
0
 10
24.083
 11
23.756
 20
-36.591
 21
-36.522
  0
LINE
  8
0
 10
23.756
 11
23.45
 20
-36.522
 21
-36.386
  0
LINE
  8
0
 10
23.45
 11
23.179
 20
-36.386
 21
-36.189
  0
LINE
  8
0
 10
23.179
 11
22.956
 20
-36.189
 21
-35.94
  0
LINE
  8
0
 10
22.956
 11
22.788
 20
-35.94
 21
-35.651
  0
LINE
  8
0
 10
22.788
 11
22.685
 20
-35.651
 21
-35.333
  0
LINE
  8
0
 10
22.685
 11
22.65
 20
-35.333
 21
-35
  0
LINE
  8
0
 10
22.65
 11
22.685
 20
35
 21
35.333
  0
LINE
  8
0
 10
22.685
 11
22.788
 20
35.333
 21
35.651
  0
LINE
  8
0
 10
22.788
 11
22.956
 20
35.651
 21
35.94
  0
LINE
  8
0
 10
22.956
 11
23.179
 20
35.94
 21
36.189
  0
LINE
  8
0
 10
23.179
 11
23.45
 20
36.189
 21
36.386
  0
LINE
  8
0
 10
23.45
 11
23.756
 20
36.386
 21
36.522
  0
LINE
  8
0
 10
23.756
 11
24.083
 20
36.522
 21
36.591
  0
LINE
  8
0
 10
24.083
 11
24.417
 20
36.591
 21
36.591
  0
LINE
  8
0
 10
24.417
 11
24.744
 20
36.591
 21
36.522
  0
LINE
  8
0
 10
24.744
 11
25.05
 20
36.522
 21
36.386
  0
LINE
  8
0
 10
25.05
 11
25.321
 20
36.386
 21
36.189
  0
LINE
  8
0
 10
25.321
 11
25.544
 20
36.189
 21
35.94
  0
LINE
  8
0
 10
25.544
 11
25.712
 20
35.94
 21
35.651
  0
LINE
  8
0
 10
25.712
 11
25.815
 20
35.651
 21
35.333
  0
LINE
  8
0
 10
25.815
 11
25.85
 20
35.333
 21
35
  0
LINE
  8
0
 10
25.85
 11
25.815
 20
35
 21
34.667
  0
LINE
  8
0
 10
25.815
 11
25.712
 20
34.667
 21
34.349
  0
LINE
  8
0
 10
25.712
 11
25.544
 20
34.349
 21
34.06
  0
LINE
  8
0
 10
25.544
 11
25.321
 20
34.06
 21
33.811
  0
LINE
  8
0
 10
25.321
 11
25.05
 20
33.811
 21
33.614
  0
LINE
  8
0
 10
25.05
 11
24.744
 20
33.614
 21
33.478
  0
LINE
  8
0
 10
24.744
 11
24.417
 20
33.478
 21
33.409
  0
LINE
  8
0
 10
24.417
 11
24.083
 20
33.409
 21
33.409
  0
LINE
  8
0
 10
24.083
 11
23.756
 20
33.409
 21
33.478
  0
LINE
  8
0
 10
23.756
 11
23.45
 20
33.478
 21
33.614
  0
LINE
  8
0
 10
23.45
 11
23.179
 20
33.614
 21
33.811
  0
LINE
  8
0
 10
23.179
 11
22.956
 20
33.811
 21
34.06
  0
LINE
  8
0
 10
22.956
 11
22.788
 20
34.06
 21
34.349
  0
LINE
  8
0
 10
22.788
 11
22.685
 20
34.349
 21
34.667
  0
LINE
  8
0
 10
22.685
 11
22.65
 20
34.667
 21
35
  0
ENDSEC
  0
SECTION
  2
OBJECTS
  0
DICTIONARY
  0
ENDSEC
  0
EOF
