  0
SECTION
  2
HEADER
  9
$ACADVER
  1
AC1014
  9
$HANDSEED
  5
FFFF
  9
$MEASUREMENT
 70
     1
  0
ENDSEC
  0
SECTION
  2
TABLES
  0
TABLE
  2
VPORT
  5
8
330
0
100
AcDbSymbolTable
 70
     4
  0
VPORT
  5
2E
330
8
100
AcDbSymbolTableRecord
100
AcDbViewportTableRecord
  2
*ACTIVE
 70
     0
 10
0.0
 20
0.0
 11
1.0
 21
1.0
 12
210.0
 22
148.5
 13
0.0
 23
0.0
 14
10.0
 24
10.0
 15
10.0
 25
10.0
 16
0.0
 26
0.0
 36
1.0
 17
0.0
 27
0.0
 37
0.0
 40
341.0
 41
1.24
 42
50.0
 43
0.0
 44
0.0
 50
0.0
 51
0.0
 71
     0
 72
   100
 73
     1
 74
     3
 75
     0
 76
     0
 77
     0
 78
     0
  0
ENDTAB
  0
TABLE
  2
LTYPE
  5
5
330
0
100
AcDbSymbolTable
 70
     1
  0
LTYPE
  5
14
330
5
100
AcDbSymbolTableRecord
100
AcDbLinetypeTableRecord
  2
BYBLOCK
 70
     0
  3

 72
    65
 73
     0
 40
0.0
  0
LTYPE
  5
15
330
5
100
AcDbSymbolTableRecord
100
AcDbLinetypeTableRecord
  2
BYLAYER
 70
     0
  3

 72
    65
 73
     0
 40
0.0
  0
LTYPE
  5
16
330
5
100
AcDbSymbolTableRecord
100
AcDbLinetypeTableRecord
  2
CONTINUOUS
 70
     0
  3
Solid line
 72
    65
 73
     0
 40
0.0
  0
ENDTAB
  0
TABLE
  2
LAYER
  5
2
100
AcDbSymbolTable
 70
2
  0
LAYER
  5
50
100
AcDbSymbolTableRecord
100
AcDbLayerTableRecord
  2
0
 70
0
  6
CONTINUOUS
  0
LAYER
  5
51
100
AcDbSymbolTableRecord
100
AcDbLayerTableRecord
  2
Layer_1
 70
0
  6
CONTINUOUS
  0
ENDTAB
  0
TABLE
  2
STYLE
  5
3
330
0
100
AcDbSymbolTable
 70
     1
  0
STYLE
  5
11
330
3
100
AcDbSymbolTableRecord
100
AcDbTextStyleTableRecord
  2
STANDARD
 70
     0
 40
0.0
 41
1.0
 50
0.0
 71
     0
 42
2.5
  3
txt
  4

  0
ENDTAB
  0
TABLE
  2
VIEW
  5
6
330
0
100
AcDbSymbolTable
 70
     0
  0
ENDTAB
  0
TABLE
  2
UCS
  5
7
330
0
100
AcDbSymbolTable
 70
     0
  0
ENDTAB
  0
TABLE
  2
APPID
  5
9
330
0
100
AcDbSymbolTable
 70
     2
  0
APPID
  5
12
330
9
100
AcDbSymbolTableRecord
100
AcDbRegAppTableRecord
  2
ACAD
 70
     0
  0
ENDTAB
  0
TABLE
  2
DIMSTYLE
  5
A
330
0
100
AcDbSymbolTable
 70
     1
  0
DIMSTYLE
105
27
330
A
100
AcDbSymbolTableRecord
100
AcDbDimStyleTableRecord
  2
ISO-25
 70
     0
  3

  4

  5

  6

  7

 40
1.0
 41
2.5
 42
0.625
 43
3.75
 44
1.25
 45
0.0
 46
0.0
 47
0.0
 48
0.0
140
2.5
141
2.5
142
0.0
143
0.03937007874016
144
1.0
145
0.0
146
1.0
147
0.625
 71
     0
 72
     0
 73
     0
 74
     0
 75
     0
 76
     0
 77
     1
 78
     8
170
     0
171
     3
172
     1
173
     0
174
     0
175
     0
176
     0
177
     0
178
     0
270
     2
271
     2
272
     2
273
     2
274
     3
340
11
275
     0
280
     0
281
     0
282
     0
283
     0
284
     8
285
     0
286
     0
287
     3
288
     0
  0
ENDTAB
  0
TABLE
  2
BLOCK_RECORD
  5
1
330
0
100
AcDbSymbolTable
 70
     1
  0
BLOCK_RECORD
  5
1F
330
1
100
AcDbSymbolTableRecord
100
AcDbBlockTableRecord
  2
*MODEL_SPACE
  0
BLOCK_RECORD
  5
1B
330
1
100
AcDbSymbolTableRecord
100
AcDbBlockTableRecord
  2
*PAPER_SPACE
  0
ENDTAB
  0
ENDSEC
  0
SECTION
  2
BLOCKS
  0
BLOCK
  5
20
330
1F
100
AcDbEntity
  8
0
100
AcDbBlockBegin
  2
*MODEL_SPACE
 70
     0
 10
0.0
 20
0.0
 30
0.0
  3
*MODEL_SPACE
  1

  0
ENDBLK
  5
21
330
1F
100
AcDbEntity
  8
0
100
AcDbBlockEnd
  0
BLOCK
  5
1C
330
1B
100
AcDbEntity
 67
     1
  8
0
100
AcDbBlockBegin
  2
*PAPER_SPACE
  1

  0
ENDBLK
  5
1D
330
1B
100
AcDbEntity
 67
     1
  8
0
100
AcDbBlockEnd
  0
ENDSEC
  0
SECTION
  2
ENTITIES
  0
LWPOLYLINE
  5
100
100
AcDbEntity
  8
Layer_1
 62
7
100
AcDbPolyline
 90
5
 70
0
 10
65.092859
 20
114.819048
 30
0.0
 10
65.092859
 20
194.819051
 30
0.0
 10
123.592858
 20
194.819051
 30
0.0
 10
123.592858
 20
114.819048
 30
0.0
 10
65.092859
 20
114.819048
 30
0.0
  0
LWPOLYLINE
  5
101
100
AcDbEntity
  8
Layer_1
 62
7
100
AcDbPolyline
 90
31
 70
0
 10
68.492859
 20
119.819038
 30
0.0
 10
68.527859
 20
120.152060
 30
0.0
 10
68.630859
 20
120.470040
 30
0.0
 10
68.798859
 20
120.759063
 30
0.0
 10
69.021859
 20
121.008040
 30
0.0
 10
69.292859
 20
121.205059
 30
0.0
 10
69.598859
 20
121.341062
 30
0.0
 10
69.925859
 20
121.410037
 30
0.0
 10
70.259859
 20
121.410037
 30
0.0
 10
70.586859
 20
121.341062
 30
0.0
 10
70.892859
 20
121.205059
 30
0.0
 10
71.163859
 20
121.008040
 30
0.0
 10
71.386859
 20
120.759063
 30
0.0
 10
71.554859
 20
120.470040
 30
0.0
 10
71.657859
 20
120.152060
 30
0.0
 10
71.692859
 20
119.819038
 30
0.0
 10
71.657859
 20
119.486044
 30
0.0
 10
71.554859
 20
119.168064
 30
0.0
 10
71.386859
 20
118.879040
 30
0.0
 10
71.163859
 20
118.630064
 30
0.0
 10
70.892859
 20
118.433044
 30
0.0
 10
70.586859
 20
118.297041
 30
0.0
 10
70.259859
 20
118.228038
 30
0.0
 10
69.925859
 20
118.228038
 30
0.0
 10
69.598859
 20
118.297041
 30
0.0
 10
69.292859
 20
118.433044
 30
0.0
 10
69.021859
 20
118.630064
 30
0.0
 10
68.798859
 20
118.879040
 30
0.0
 10
68.630859
 20
119.168064
 30
0.0
 10
68.527859
 20
119.486044
 30
0.0
 10
68.492859
 20
119.819038
 30
0.0
  0
LWPOLYLINE
  5
102
100
AcDbEntity
  8
Layer_1
 62
7
100
AcDbPolyline
 90
31
 70
0
 10
68.492859
 20
189.819050
 30
0.0
 10
68.527859
 20
190.152052
 30
0.0
 10
68.630859
 20
190.470052
 30
0.0
 10
68.798859
 20
190.759050
 30
0.0
 10
69.021859
 20
191.008052
 30
0.0
 10
69.292859
 20
191.205052
 30
0.0
 10
69.598859
 20
191.341052
 30
0.0
 10
69.925859
 20
191.410049
 30
0.0
 10
70.259859
 20
191.410049
 30
0.0
 10
70.586859
 20
191.341052
 30
0.0
 10
70.892859
 20
191.205052
 30
0.0
 10
71.163859
 20
191.008052
 30
0.0
 10
71.386859
 20
190.759050
 30
0.0
 10
71.554859
 20
190.470052
 30
0.0
 10
71.657859
 20
190.152052
 30
0.0
 10
71.692859
 20
189.819050
 30
0.0
 10
71.657859
 20
189.486050
 30
0.0
 10
71.554859
 20
189.168051
 30
0.0
 10
71.386859
 20
188.879052
 30
0.0
 10
71.163859
 20
188.630051
 30
0.0
 10
70.892859
 20
188.433051
 30
0.0
 10
70.586859
 20
188.297051
 30
0.0
 10
70.259859
 20
188.228050
 30
0.0
 10
69.925859
 20
188.228050
 30
0.0
 10
69.598859
 20
188.297051
 30
0.0
 10
69.292859
 20
188.433051
 30
0.0
 10
69.021859
 20
188.630051
 30
0.0
 10
68.798859
 20
188.879052
 30
0.0
 10
68.630859
 20
189.168051
 30
0.0
 10
68.527859
 20
189.486050
 30
0.0
 10
68.492859
 20
189.819050
 30
0.0
  0
LWPOLYLINE
  5
103
100
AcDbEntity
  8
Layer_1
 62
7
100
AcDbPolyline
 90
31
 70
0
 10
78.317859
 20
179.819050
 30
0.0
 10
78.341859
 20
180.048051
 30
0.0
 10
78.412859
 20
180.266051
 30
0.0
 10
78.527859
 20
180.466050
 30
0.0
 10
78.681859
 20
180.636050
 30
0.0
 10
78.867859
 20
180.772050
 30
0.0
 10
79.077859
 20
180.865050
 30
0.0
 10
79.302859
 20
180.913051
 30
0.0
 10
79.532859
 20
180.913051
 30
0.0
 10
79.757859
 20
180.865050
 30
0.0
 10
79.967859
 20
180.772050
 30
0.0
 10
80.153859
 20
180.636050
 30
0.0
 10
80.307859
 20
180.466050
 30
0.0
 10
80.422859
 20
180.266051
 30
0.0
 10
80.493859
 20
180.048051
 30
0.0
 10
80.517859
 20
179.819050
 30
0.0
 10
80.493859
 20
179.590049
 30
0.0
 10
80.422859
 20
179.372050
 30
0.0
 10
80.307859
 20
179.172050
 30
0.0
 10
80.153859
 20
179.002051
 30
0.0
 10
79.967859
 20
178.866051
 30
0.0
 10
79.757859
 20
178.773050
 30
0.0
 10
79.532859
 20
178.725050
 30
0.0
 10
79.302859
 20
178.725050
 30
0.0
 10
79.077859
 20
178.773050
 30
0.0
 10
78.867859
 20
178.866051
 30
0.0
 10
78.681859
 20
179.002051
 30
0.0
 10
78.527859
 20
179.172050
 30
0.0
 10
78.412859
 20
179.372050
 30
0.0
 10
78.341859
 20
179.590049
 30
0.0
 10
78.317858
 20
179.819050
 30
0.0
  0
LWPOLYLINE
  5
104
100
AcDbEntity
  8
Layer_1
 62
7
100
AcDbPolyline
 90
31
 70
0
 10
82.582859
 20
128.244048
 30
0.0
 10
82.617859
 20
128.577042
 30
0.0
 10
82.720859
 20
128.895050
 30
0.0
 10
82.888859
 20
129.184046
 30
0.0
 10
83.111859
 20
129.433050
 30
0.0
 10
83.382859
 20
129.630042
 30
0.0
 10
83.688859
 20
129.766044
 30
0.0
 10
84.015859
 20
129.835048
 30
0.0
 10
84.349859
 20
129.835048
 30
0.0
 10
84.676859
 20
129.766044
 30
0.0
 10
84.982859
 20
129.630042
 30
0.0
 10
85.253859
 20
129.433050
 30
0.0
 10
85.476859
 20
129.184046
 30
0.0
 10
85.644859
 20
128.895050
 30
0.0
 10
85.747859
 20
128.577042
 30
0.0
 10
85.782859
 20
128.244048
 30
0.0
 10
85.747859
 20
127.911054
 30
0.0
 10
85.644859
 20
127.593046
 30
0.0
 10
85.476859
 20
127.304051
 30
0.0
 10
85.253859
 20
127.055046
 30
0.0
 10
84.982859
 20
126.858055
 30
0.0
 10
84.676859
 20
126.722052
 30
0.0
 10
84.349859
 20
126.653049
 30
0.0
 10
84.015859
 20
126.653049
 30
0.0
 10
83.688859
 20
126.722052
 30
0.0
 10
83.382859
 20
126.858055
 30
0.0
 10
83.111859
 20
127.055046
 30
0.0
 10
82.888859
 20
127.304051
 30
0.0
 10
82.720859
 20
127.593046
 30
0.0
 10
82.617859
 20
127.911054
 30
0.0
 10
82.582859
 20
128.244048
 30
0.0
  0
LWPOLYLINE
  5
105
100
AcDbEntity
  8
Layer_1
 62
7
100
AcDbPolyline
 90
31
 70
0
 10
82.582859
 20
161.394040
 30
0.0
 10
82.617859
 20
161.727062
 30
0.0
 10
82.720859
 20
162.045042
 30
0.0
 10
82.888859
 20
162.334037
 30
0.0
 10
83.111859
 20
162.583042
 30
0.0
 10
83.382859
 20
162.780061
 30
0.0
 10
83.688859
 20
162.916064
 30
0.0
 10
84.015859
 20
162.985039
 30
0.0
 10
84.349859
 20
162.985039
 30
0.0
 10
84.676859
 20
162.916064
 30
0.0
 10
84.982859
 20
162.780061
 30
0.0
 10
85.253859
 20
162.583042
 30
0.0
 10
85.476859
 20
162.334037
 30
0.0
 10
85.644859
 20
162.045042
 30
0.0
 10
85.747859
 20
161.727062
 30
0.0
 10
85.782859
 20
161.394040
 30
0.0
 10
85.747859
 20
161.061046
 30
0.0
 10
85.644859
 20
160.743038
 30
0.0
 10
85.476859
 20
160.454042
 30
0.0
 10
85.253859
 20
160.205038
 30
0.0
 10
84.982859
 20
160.008046
 30
0.0
 10
84.676859
 20
159.872044
 30
0.0
 10
84.349859
 20
159.803040
 30
0.0
 10
84.015859
 20
159.803040
 30
0.0
 10
83.688859
 20
159.872044
 30
0.0
 10
83.382859
 20
160.008046
 30
0.0
 10
83.111859
 20
160.205038
 30
0.0
 10
82.888859
 20
160.454042
 30
0.0
 10
82.720859
 20
160.743038
 30
0.0
 10
82.617859
 20
161.061046
 30
0.0
 10
82.582859
 20
161.394040
 30
0.0
  0
LWPOLYLINE
  5
106
100
AcDbEntity
  8
Layer_1
 62
7
100
AcDbPolyline
 90
5
 70
0
 10
82.667859
 20
168.144062
 30
0.0
 10
82.667859
 20
191.494050
 30
0.0
 10
106.017859
 20
191.494050
 30
0.0
 10
106.017859
 20
168.144062
 30
0.0
 10
82.667859
 20
168.144062
 30
0.0
  0
LWPOLYLINE
  5
107
100
AcDbEntity
  8
Layer_1
 62
7
100
AcDbPolyline
 90
5
 70
0
 10
82.682859
 20
132.819040
 30
0.0
 10
82.682859
 20
158.819044
 30
0.0
 10
85.682859
 20
158.819044
 30
0.0
 10
85.682859
 20
132.819040
 30
0.0
 10
82.682859
 20
132.819040
 30
0.0
  0
LWPOLYLINE
  5
108
100
AcDbEntity
  8
Layer_1
 62
7
100
AcDbPolyline
 90
31
 70
0
 10
102.902859
 20
128.244048
 30
0.0
 10
102.937859
 20
128.577042
 30
0.0
 10
103.040859
 20
128.895050
 30
0.0
 10
103.208859
 20
129.184046
 30
0.0
 10
103.431859
 20
129.433050
 30
0.0
 10
103.702859
 20
129.630042
 30
0.0
 10
104.008859
 20
129.766044
 30
0.0
 10
104.335859
 20
129.835048
 30
0.0
 10
104.669859
 20
129.835048
 30
0.0
 10
104.996859
 20
129.766044
 30
0.0
 10
105.302859
 20
129.630042
 30
0.0
 10
105.573859
 20
129.433050
 30
0.0
 10
105.796859
 20
129.184046
 30
0.0
 10
105.964859
 20
128.895050
 30
0.0
 10
106.067859
 20
128.577042
 30
0.0
 10
106.102859
 20
128.244048
 30
0.0
 10
106.067859
 20
127.911054
 30
0.0
 10
105.964859
 20
127.593046
 30
0.0
 10
105.796859
 20
127.304051
 30
0.0
 10
105.573859
 20
127.055046
 30
0.0
 10
105.302859
 20
126.858055
 30
0.0
 10
104.996859
 20
126.722052
 30
0.0
 10
104.669859
 20
126.653049
 30
0.0
 10
104.335859
 20
126.653049
 30
0.0
 10
104.008859
 20
126.722052
 30
0.0
 10
103.702859
 20
126.858055
 30
0.0
 10
103.431859
 20
127.055046
 30
0.0
 10
103.208859
 20
127.304051
 30
0.0
 10
103.040859
 20
127.593046
 30
0.0
 10
102.937859
 20
127.911054
 30
0.0
 10
102.902859
 20
128.244048
 30
0.0
  0
LWPOLYLINE
  5
109
100
AcDbEntity
  8
Layer_1
 62
7
100
AcDbPolyline
 90
31
 70
0
 10
102.902859
 20
161.394040
 30
0.0
 10
102.937859
 20
161.727062
 30
0.0
 10
103.040859
 20
162.045042
 30
0.0
 10
103.208859
 20
162.334037
 30
0.0
 10
103.431859
 20
162.583042
 30
0.0
 10
103.702859
 20
162.780061
 30
0.0
 10
104.008859
 20
162.916064
 30
0.0
 10
104.335859
 20
162.985039
 30
0.0
 10
104.669859
 20
162.985039
 30
0.0
 10
104.996859
 20
162.916064
 30
0.0
 10
105.302859
 20
162.780061
 30
0.0
 10
105.573859
 20
162.583042
 30
0.0
 10
105.796859
 20
162.334037
 30
0.0
 10
105.964859
 20
162.045042
 30
0.0
 10
106.067859
 20
161.727062
 30
0.0
 10
106.102859
 20
161.394040
 30
0.0
 10
106.067859
 20
161.061046
 30
0.0
 10
105.964859
 20
160.743038
 30
0.0
 10
105.796859
 20
160.454042
 30
0.0
 10
105.573859
 20
160.205038
 30
0.0
 10
105.302859
 20
160.008046
 30
0.0
 10
104.996859
 20
159.872044
 30
0.0
 10
104.669859
 20
159.803040
 30
0.0
 10
104.335859
 20
159.803040
 30
0.0
 10
104.008859
 20
159.872044
 30
0.0
 10
103.702859
 20
160.008046
 30
0.0
 10
103.431859
 20
160.205038
 30
0.0
 10
103.208859
 20
160.454042
 30
0.0
 10
103.040859
 20
160.743038
 30
0.0
 10
102.937859
 20
161.061046
 30
0.0
 10
102.902859
 20
161.394040
 30
0.0
  0
LWPOLYLINE
  5
10a
100
AcDbEntity
  8
Layer_1
 62
7
100
AcDbPolyline
 90
5
 70
0
 10
103.002859
 20
132.819040
 30
0.0
 10
103.002859
 20
158.819044
 30
0.0
 10
106.002859
 20
158.819044
 30
0.0
 10
106.002859
 20
132.819040
 30
0.0
 10
103.002859
 20
132.819040
 30
0.0
  0
LWPOLYLINE
  5
10b
100
AcDbEntity
  8
Layer_1
 62
7
100
AcDbPolyline
 90
31
 70
0
 10
108.167859
 20
179.819050
 30
0.0
 10
108.191859
 20
180.048051
 30
0.0
 10
108.262859
 20
180.266051
 30
0.0
 10
108.377859
 20
180.466050
 30
0.0
 10
108.531859
 20
180.636050
 30
0.0
 10
108.717859
 20
180.772050
 30
0.0
 10
108.927859
 20
180.865050
 30
0.0
 10
109.152859
 20
180.913051
 30
0.0
 10
109.382859
 20
180.913051
 30
0.0
 10
109.607859
 20
180.865050
 30
0.0
 10
109.817859
 20
180.772050
 30
0.0
 10
110.003859
 20
180.636050
 30
0.0
 10
110.157859
 20
180.466050
 30
0.0
 10
110.272859
 20
180.266051
 30
0.0
 10
110.343859
 20
180.048051
 30
0.0
 10
110.367859
 20
179.819050
 30
0.0
 10
110.343859
 20
179.590049
 30
0.0
 10
110.272859
 20
179.372050
 30
0.0
 10
110.157859
 20
179.172050
 30
0.0
 10
110.003859
 20
179.002051
 30
0.0
 10
109.817859
 20
178.866051
 30
0.0
 10
109.607859
 20
178.773050
 30
0.0
 10
109.382859
 20
178.725050
 30
0.0
 10
109.152859
 20
178.725050
 30
0.0
 10
108.927859
 20
178.773050
 30
0.0
 10
108.717859
 20
178.866051
 30
0.0
 10
108.531859
 20
179.002051
 30
0.0
 10
108.377859
 20
179.172050
 30
0.0
 10
108.262859
 20
179.372050
 30
0.0
 10
108.191859
 20
179.590049
 30
0.0
 10
108.167859
 20
179.819050
 30
0.0
  0
LWPOLYLINE
  5
10c
100
AcDbEntity
  8
Layer_1
 62
7
100
AcDbPolyline
 90
31
 70
0
 10
116.992859
 20
119.819038
 30
0.0
 10
117.027859
 20
120.152060
 30
0.0
 10
117.130859
 20
120.470040
 30
0.0
 10
117.298859
 20
120.759063
 30
0.0
 10
117.521859
 20
121.008040
 30
0.0
 10
117.792859
 20
121.205059
 30
0.0
 10
118.098859
 20
121.341062
 30
0.0
 10
118.425859
 20
121.410037
 30
0.0
 10
118.759859
 20
121.410037
 30
0.0
 10
119.086859
 20
121.341062
 30
0.0
 10
119.392859
 20
121.205059
 30
0.0
 10
119.663859
 20
121.008040
 30
0.0
 10
119.886859
 20
120.759063
 30
0.0
 10
120.054859
 20
120.470040
 30
0.0
 10
120.157859
 20
120.152060
 30
0.0
 10
120.192859
 20
119.819038
 30
0.0
 10
120.157859
 20
119.486044
 30
0.0
 10
120.054859
 20
119.168064
 30
0.0
 10
119.886859
 20
118.879040
 30
0.0
 10
119.663859
 20
118.630064
 30
0.0
 10
119.392859
 20
118.433044
 30
0.0
 10
119.086859
 20
118.297041
 30
0.0
 10
118.759859
 20
118.228038
 30
0.0
 10
118.425859
 20
118.228038
 30
0.0
 10
118.098859
 20
118.297041
 30
0.0
 10
117.792859
 20
118.433044
 30
0.0
 10
117.521859
 20
118.630064
 30
0.0
 10
117.298859
 20
118.879040
 30
0.0
 10
117.130859
 20
119.168064
 30
0.0
 10
117.027859
 20
119.486044
 30
0.0
 10
116.992859
 20
119.819038
 30
0.0
  0
LWPOLYLINE
  5
10d
100
AcDbEntity
  8
Layer_1
 62
7
100
AcDbPolyline
 90
31
 70
0
 10
116.992859
 20
189.819050
 30
0.0
 10
117.027859
 20
190.152052
 30
0.0
 10
117.130859
 20
190.470052
 30
0.0
 10
117.298859
 20
190.759050
 30
0.0
 10
117.521859
 20
191.008052
 30
0.0
 10
117.792859
 20
191.205052
 30
0.0
 10
118.098859
 20
191.341052
 30
0.0
 10
118.425859
 20
191.410049
 30
0.0
 10
118.759859
 20
191.410049
 30
0.0
 10
119.086859
 20
191.341052
 30
0.0
 10
119.392859
 20
191.205052
 30
0.0
 10
119.663859
 20
191.008052
 30
0.0
 10
119.886859
 20
190.759050
 30
0.0
 10
120.054859
 20
190.470052
 30
0.0
 10
120.157859
 20
190.152052
 30
0.0
 10
120.192859
 20
189.819050
 30
0.0
 10
120.157859
 20
189.486050
 30
0.0
 10
120.054859
 20
189.168051
 30
0.0
 10
119.886859
 20
188.879052
 30
0.0
 10
119.663859
 20
188.630051
 30
0.0
 10
119.392859
 20
188.433051
 30
0.0
 10
119.086859
 20
188.297051
 30
0.0
 10
118.759859
 20
188.228050
 30
0.0
 10
118.425859
 20
188.228050
 30
0.0
 10
118.098859
 20
188.297051
 30
0.0
 10
117.792859
 20
188.433051
 30
0.0
 10
117.521859
 20
188.630051
 30
0.0
 10
117.298859
 20
188.879052
 30
0.0
 10
117.130859
 20
189.168051
 30
0.0
 10
117.027859
 20
189.486050
 30
0.0
 10
116.992859
 20
189.819050
 30
0.0
  0
ENDSEC
  0
SECTION
  2
OBJECTS
  0
DICTIONARY
  5
C
330
0
100
AcDbDictionary
  3
ACAD_GROUP
350
D
  3
ACAD_MLINESTYLE
350
17
  0
DICTIONARY
  5
D
330
C
100
AcDbDictionary
  0
DICTIONARY
  5
1A
330
C
100
AcDbDictionary
  0
DICTIONARY
  5
17
330
C
100
AcDbDictionary
  3
STANDARD
350
18
  0
DICTIONARY
  5
19
330
C
100
AcDbDictionary
  0
ENDSEC
  0
EOF
