  0
SECTION
  2
BLOCKS
  0
ENDSEC
  0
SECTION
  2
ENTITIES
  0
LINE
  8
0
 10
-29.25
 11
-29.25
 20
-40
 21
40
  0
LINE
  8
0
 10
-29.25
 11
29.25
 20
40
 21
40
  0
LINE
  8
0
 10
29.25
 11
29.25
 20
40
 21
-40
  0
LINE
  8
0
 10
29.25
 11
-29.25
 20
-40
 21
-40
  0
LINE
  8
0
 10
-16.025
 11
-16.001
 20
25
 21
25.229
  0
LINE
  8
0
 10
-16.001
 11
-15.93
 20
25.229
 21
25.447
  0
LINE
  8
0
 10
-15.93
 11
-15.815
 20
25.447
 21
25.647
  0
LINE
  8
0
 10
-15.815
 11
-15.661
 20
25.647
 21
25.817
  0
LINE
  8
0
 10
-15.661
 11
-15.475
 20
25.817
 21
25.953
  0
LINE
  8
0
 10
-15.475
 11
-15.265
 20
25.953
 21
26.046
  0
LINE
  8
0
 10
-15.265
 11
-15.04
 20
26.046
 21
26.094
  0
LINE
  8
0
 10
-15.04
 11
-14.81
 20
26.094
 21
26.094
  0
LINE
  8
0
 10
-14.81
 11
-14.585
 20
26.094
 21
26.046
  0
LINE
  8
0
 10
-14.585
 11
-14.375
 20
26.046
 21
25.953
  0
LINE
  8
0
 10
-14.375
 11
-14.189
 20
25.953
 21
25.817
  0
LINE
  8
0
 10
-14.189
 11
-14.035
 20
25.817
 21
25.647
  0
LINE
  8
0
 10
-14.035
 11
-13.92
 20
25.647
 21
25.447
  0
LINE
  8
0
 10
-13.92
 11
-13.849
 20
25.447
 21
25.229
  0
LINE
  8
0
 10
-13.849
 11
-13.825
 20
25.229
 21
25
  0
LINE
  8
0
 10
-13.825
 11
-13.849
 20
25
 21
24.771
  0
LINE
  8
0
 10
-13.849
 11
-13.92
 20
24.771
 21
24.553
  0
LINE
  8
0
 10
-13.92
 11
-14.035
 20
24.553
 21
24.353
  0
LINE
  8
0
 10
-14.035
 11
-14.189
 20
24.353
 21
24.183
  0
LINE
  8
0
 10
-14.189
 11
-14.375
 20
24.183
 21
24.047
  0
LINE
  8
0
 10
-14.375
 11
-14.585
 20
24.047
 21
23.954
  0
LINE
  8
0
 10
-14.585
 11
-14.81
 20
23.954
 21
23.906
  0
LINE
  8
0
 10
-14.81
 11
-15.04
 20
23.906
 21
23.906
  0
LINE
  8
0
 10
-15.04
 11
-15.265
 20
23.906
 21
23.954
  0
LINE
  8
0
 10
-15.265
 11
-15.475
 20
23.954
 21
24.047
  0
LINE
  8
0
 10
-15.475
 11
-15.661
 20
24.047
 21
24.183
  0
LINE
  8
0
 10
-15.661
 11
-15.815
 20
24.183
 21
24.353
  0
LINE
  8
0
 10
-15.815
 11
-15.93
 20
24.353
 21
24.553
  0
LINE
  8
0
 10
-15.93
 11
-16.001
 20
24.553
 21
24.771
  0
LINE
  8
0
 10
-16.001
 11
-16.025
 20
24.771
 21
25
  0
LINE
  8
0
 10
-11.675
 11
-11.675
 20
13.325
 21
36.675
  0
LINE
  8
0
 10
-11.675
 11
11.675
 20
36.675
 21
36.675
  0
LINE
  8
0
 10
11.675
 11
11.675
 20
36.675
 21
13.325
  0
LINE
  8
0
 10
11.675
 11
-11.675
 20
13.325
 21
13.325
  0
LINE
  8
0
 10
13.825
 11
13.849
 20
25
 21
25.229
  0
LINE
  8
0
 10
13.849
 11
13.92
 20
25.229
 21
25.447
  0
LINE
  8
0
 10
13.92
 11
14.035
 20
25.447
 21
25.647
  0
LINE
  8
0
 10
14.035
 11
14.189
 20
25.647
 21
25.817
  0
LINE
  8
0
 10
14.189
 11
14.375
 20
25.817
 21
25.953
  0
LINE
  8
0
 10
14.375
 11
14.585
 20
25.953
 21
26.046
  0
LINE
  8
0
 10
14.585
 11
14.81
 20
26.046
 21
26.094
  0
LINE
  8
0
 10
14.81
 11
15.04
 20
26.094
 21
26.094
  0
LINE
  8
0
 10
15.04
 11
15.265
 20
26.094
 21
26.046
  0
LINE
  8
0
 10
15.265
 11
15.475
 20
26.046
 21
25.953
  0
LINE
  8
0
 10
15.475
 11
15.661
 20
25.953
 21
25.817
  0
LINE
  8
0
 10
15.661
 11
15.815
 20
25.817
 21
25.647
  0
LINE
  8
0
 10
15.815
 11
15.93
 20
25.647
 21
25.447
  0
LINE
  8
0
 10
15.93
 11
16.001
 20
25.447
 21
25.229
  0
LINE
  8
0
 10
16.001
 11
16.025
 20
25.229
 21
25
  0
LINE
  8
0
 10
16.025
 11
16.001
 20
25
 21
24.771
  0
LINE
  8
0
 10
16.001
 11
15.93
 20
24.771
 21
24.553
  0
LINE
  8
0
 10
15.93
 11
15.815
 20
24.553
 21
24.353
  0
LINE
  8
0
 10
15.815
 11
15.661
 20
24.353
 21
24.183
  0
LINE
  8
0
 10
15.661
 11
15.475
 20
24.183
 21
24.047
  0
LINE
  8
0
 10
15.475
 11
15.265
 20
24.047
 21
23.954
  0
LINE
  8
0
 10
15.265
 11
15.04
 20
23.954
 21
23.906
  0
LINE
  8
0
 10
15.04
 11
14.81
 20
23.906
 21
23.906
  0
LINE
  8
0
 10
14.81
 11
14.585
 20
23.906
 21
23.954
  0
LINE
  8
0
 10
14.585
 11
14.375
 20
23.954
 21
24.047
  0
LINE
  8
0
 10
14.375
 11
14.189
 20
24.047
 21
24.183
  0
LINE
  8
0
 10
14.189
 11
14.035
 20
24.183
 21
24.353
  0
LINE
  8
0
 10
14.035
 11
13.92
 20
24.353
 21
24.553
  0
LINE
  8
0
 10
13.92
 11
13.849
 20
24.553
 21
24.771
  0
LINE
  8
0
 10
13.849
 11
13.825
 20
24.771
 21
25
  0
ENDSEC
  0
SECTION
  2
OBJECTS
  0
DICTIONARY
  0
ENDSEC
  0
EOF
